<svg width="629" height="192" viewBox="0 0 629 192" fill="none" xmlns="http://www.w3.org/2000/svg">
<g opacity="0.46" filter="url(#filter0_g_4_67)">
<path d="M-106.921 26.9H514.641L602.079 95.9L514.641 164.9H-106.921V26.9Z" fill="url(#paint0_linear_4_67)"/>
</g>
<path d="M387.433 103.03C387.324 103.897 386.963 104.637 386.349 105.251C385.735 105.829 385.157 106.461 384.615 107.148C383.965 107.87 383.424 108.484 382.99 108.99C382.593 109.459 382.232 109.929 381.906 110.398C381.581 110.868 381.274 111.374 380.985 111.915C380.733 112.457 380.444 113.144 380.119 113.974C380.046 114.119 379.956 114.227 379.848 114.299C379.775 114.372 379.739 114.534 379.739 114.787C379.667 115.582 379.197 116.178 378.331 116.575C377.5 116.972 376.47 117.243 375.242 117.388C374.05 117.568 372.768 117.659 371.395 117.659C370.059 117.659 368.867 117.659 367.82 117.659C367.097 117.659 366.339 117.64 365.544 117.604C364.786 117.604 364.045 117.604 363.323 117.604C362.6 117.604 361.95 117.677 361.372 117.821C360.83 117.966 360.343 118.038 359.909 118.038C358.97 118.038 358.103 117.966 357.309 117.821C356.514 117.677 355.755 117.604 355.033 117.604C354.275 117.64 353.588 117.731 352.974 117.875C352.396 118.02 351.818 118.164 351.24 118.309C350.663 118.489 350.085 118.634 349.507 118.742C348.965 118.887 348.369 118.959 347.719 118.959C347.466 118.959 347.249 118.923 347.069 118.851C346.888 118.778 346.798 118.543 346.798 118.146C346.798 117.713 347.014 117.424 347.448 117.279C347.917 117.135 348.423 117.008 348.965 116.9C349.543 116.792 350.049 116.647 350.482 116.467C350.952 116.286 351.186 115.961 351.186 115.491V114.95C351.186 114.769 351.186 114.57 351.186 114.354C351.222 114.137 351.295 113.884 351.403 113.595C351.439 113.487 351.584 113.36 351.836 113.216C352.089 113.035 352.216 112.837 352.216 112.62C352.216 112.548 352.198 112.457 352.162 112.349C352.162 112.241 352.162 112.15 352.162 112.078C352.162 112.042 352.18 112.006 352.216 111.97C352.577 111.645 352.812 111.012 352.92 110.073C353.065 109.098 353.155 108.014 353.191 106.823C353.227 105.631 353.245 104.421 353.245 103.192C353.245 101.928 353.299 100.809 353.408 99.8333C353.516 99.0386 353.715 98.244 354.004 97.4493C354.293 96.6547 354.509 95.842 354.654 95.0112C354.654 94.8667 354.672 94.5236 354.708 93.9818C354.78 93.44 354.834 92.8621 354.871 92.248C354.907 91.634 354.943 91.038 354.979 90.4601C355.015 89.846 355.033 89.4126 355.033 89.1598C355.033 88.943 354.943 88.7986 354.762 88.7263C354.618 88.618 354.455 88.5638 354.275 88.5638C353.877 88.5638 353.426 88.7083 352.92 88.9972C352.45 89.2862 351.963 89.6113 351.457 89.9725C350.952 90.3337 350.446 90.6587 349.94 90.9477C349.434 91.2367 348.983 91.3812 348.586 91.3812C348.297 91.3812 348.134 91.2909 348.098 91.1103C348.062 90.9296 348.044 90.749 348.044 90.5684C348.044 90.135 348.206 89.7557 348.531 89.4307C348.857 89.0695 349.254 88.7263 349.723 88.4012C350.193 88.0762 350.681 87.7691 351.186 87.4802C351.728 87.1551 352.198 86.83 352.595 86.5049C352.776 86.3243 352.866 86.1437 352.866 85.9631C352.866 85.7825 352.956 85.6922 353.137 85.6922C353.209 85.6922 353.299 85.7103 353.408 85.7464C353.516 85.7464 353.606 85.7464 353.679 85.7464C353.859 85.7464 353.968 85.62 354.004 85.3671C354.04 85.0782 354.13 84.8976 354.275 84.8253C354.6 84.717 354.871 84.6267 355.087 84.5544C355.304 84.4461 355.485 84.2474 355.629 83.9585C355.774 83.6334 355.882 83.1458 355.954 82.4956C356.026 81.8454 356.063 80.8883 356.063 79.624C356.063 78.396 356.207 77.4388 356.496 76.7525C356.821 76.0301 357.02 75.3619 357.092 74.7478C357.164 74.1699 357.218 73.5378 357.254 72.8515C357.291 72.1652 357.309 71.479 357.309 70.7927C357.345 70.0703 357.363 69.4021 357.363 68.788C357.399 68.1378 357.435 67.5599 357.471 67.0542C357.543 66.2957 357.652 65.5553 357.796 64.8329C357.941 64.1105 358.013 63.4964 358.013 62.9907C358.013 62.2683 357.778 61.7988 357.309 61.582C356.839 61.3653 356.37 61.257 355.9 61.257C355.503 61.257 355.069 61.2931 354.6 61.3653C354.166 61.4014 353.751 61.4195 353.353 61.4195C352.956 61.4195 352.577 61.3653 352.216 61.257C351.891 61.1486 351.62 60.9138 351.403 60.5526C351.584 59.9747 351.927 59.5593 352.432 59.3065C352.974 59.0536 353.588 58.8911 354.275 58.8189C354.997 58.7105 355.737 58.6744 356.496 58.7105C357.291 58.7105 358.013 58.6744 358.663 58.6021C359.963 58.4938 361.3 58.4215 362.672 58.3854C364.045 58.3493 365.418 58.2771 366.79 58.1687C367.621 58.0965 368.434 57.952 369.228 57.7352C370.059 57.4824 370.926 57.356 371.829 57.356C372.19 57.356 372.533 57.374 372.858 57.4102C373.22 57.4102 373.599 57.4102 373.996 57.4102C375.116 57.4102 376.127 57.2657 377.03 56.9767C377.969 56.6878 379.035 56.5433 380.227 56.5433C380.48 56.5433 380.642 56.5613 380.714 56.5975C380.823 56.6336 380.895 56.6878 380.931 56.76C380.967 56.7961 381.003 56.8322 381.04 56.8684C381.076 56.9045 381.148 56.9225 381.256 56.9225C381.329 56.9225 381.365 56.9045 381.365 56.8684C381.401 56.8322 381.437 56.7961 381.473 56.76C381.509 56.6878 381.563 56.6336 381.636 56.5975C381.744 56.5613 381.943 56.5433 382.232 56.5433C382.521 56.5433 382.791 56.5613 383.044 56.5975C383.333 56.5975 383.622 56.5975 383.911 56.5975C384.236 56.5975 384.525 56.5433 384.778 56.4349C385.031 56.3266 385.266 56.2182 385.482 56.1098C385.735 56.0015 385.988 55.8931 386.241 55.7848C386.53 55.6764 386.873 55.6222 387.27 55.6222C387.993 55.6222 388.498 55.8028 388.787 56.164C389.112 56.5252 389.275 56.9767 389.275 57.5185C389.275 58.0603 389.167 58.6744 388.95 59.3607C388.733 60.0108 388.48 60.679 388.191 61.3653C387.902 62.0155 387.595 62.6476 387.27 63.2616C386.981 63.8396 386.747 64.3091 386.566 64.6703C386.421 64.9593 386.295 65.3024 386.187 65.6997C386.114 66.0609 385.988 66.368 385.807 66.6208C385.627 66.8375 385.41 67.0542 385.157 67.271C384.904 67.4516 384.724 67.6502 384.615 67.8669C384.507 67.9753 384.417 68.192 384.345 68.5171C384.308 68.8061 384.254 69.1131 384.182 69.4382C384.11 69.7271 384.001 69.998 383.857 70.2509C383.712 70.4676 383.514 70.576 383.261 70.576C382.936 70.576 382.683 70.4676 382.502 70.2509C382.322 69.998 382.232 69.7091 382.232 69.384C382.232 68.6616 382.358 67.8669 382.611 67.0001C382.864 66.0971 382.99 65.1218 382.99 64.0743C382.99 63.4603 382.9 62.8643 382.719 62.2864C382.575 61.6723 382.232 61.3653 381.69 61.3653C381.256 61.3653 380.696 61.4376 380.01 61.582C379.324 61.7265 378.836 61.7988 378.547 61.7988C377.861 61.7988 376.904 61.7446 375.676 61.6362C374.484 61.5279 373.256 61.4737 371.991 61.4737C370.836 61.4737 369.86 61.564 369.066 61.7446C368.271 61.8891 367.603 62.2683 367.061 62.8824C366.555 63.4603 366.14 64.3452 365.815 65.5372C365.526 66.693 365.309 68.2823 365.165 70.3051V70.9552C365.201 71.4609 365.074 72.2555 364.786 73.3391C364.497 74.3866 364.352 75.5425 364.352 76.8067V77.6194C364.352 77.9806 364.28 78.2876 364.135 78.5404C364.027 78.7572 363.973 78.8475 363.973 78.8113C363.973 78.9919 364.027 79.2628 364.135 79.624C364.28 79.9491 364.352 80.3465 364.352 80.816C364.352 80.8883 364.262 81.0689 364.081 81.3578C363.937 81.6107 363.864 81.8635 363.864 82.1163C363.864 82.2969 364.153 82.4595 364.731 82.604C365.345 82.7484 366.068 82.8749 366.899 82.9832C367.729 83.0555 368.578 83.1277 369.445 83.1999C370.312 83.2361 371.034 83.2541 371.612 83.2541C372.118 83.2541 372.642 83.1819 373.183 83.0374C373.761 82.8929 374.43 82.8207 375.188 82.8207C375.549 82.8207 375.892 82.8387 376.218 82.8749C376.579 82.911 376.904 82.929 377.193 82.929C377.41 82.929 377.572 82.911 377.68 82.8749C378.692 82.622 379.45 82.2789 379.956 81.8454C380.498 81.412 380.985 80.9786 381.419 80.5451C381.852 80.1117 382.34 79.7324 382.882 79.4073C383.46 79.0461 384.29 78.8294 385.374 78.7572C385.518 78.9378 385.591 79.1545 385.591 79.4073C385.591 79.8046 385.41 80.1839 385.049 80.5451C384.724 80.9063 384.435 81.2675 384.182 81.6287C384.11 81.701 384.038 81.8996 383.965 82.2247C383.929 82.5498 383.857 82.7665 383.749 82.8749C383.568 83.0555 383.315 83.1277 382.99 83.0916C382.665 83.0193 382.394 83.0735 382.177 83.2541C381.997 83.3264 381.852 83.4528 381.744 83.6334C381.672 83.7779 381.545 83.9223 381.365 84.0668C380.245 84.717 379.378 85.331 378.764 85.909C378.15 86.4869 377.608 86.9926 377.139 87.426C376.669 87.8233 376.181 88.1484 375.676 88.4012C375.17 88.618 374.484 88.7263 373.617 88.7263C371.991 88.7263 370.366 88.5818 368.741 88.2929C367.151 88.0039 365.67 87.8594 364.298 87.8594C363.395 87.8594 362.817 88.1665 362.564 88.7805C362.311 89.3584 362.185 90.0628 362.185 90.8935C362.185 91.1825 362.203 91.4534 362.239 91.7062C362.275 91.923 362.293 92.1216 362.293 92.3022C362.293 92.4828 362.257 92.7357 362.185 93.0607C362.113 93.3497 362.022 93.6748 361.914 94.036C361.842 94.3611 361.769 94.6861 361.697 95.0112C361.625 95.3002 361.571 95.553 361.535 95.7697C361.462 96.3838 361.39 96.9798 361.318 97.5577C361.246 98.1356 361.155 98.8038 361.047 99.5624C360.975 100.285 360.866 101.116 360.722 102.055C360.614 102.994 360.487 104.132 360.343 105.468C360.234 106.515 360.108 107.382 359.963 108.069C359.819 108.755 359.638 109.405 359.422 110.019C359.205 110.597 358.934 111.193 358.609 111.807C358.32 112.385 357.941 113.107 357.471 113.974C357.58 113.974 357.67 113.992 357.742 114.028C357.85 114.028 357.941 114.028 358.013 114.028C358.483 114.028 358.952 113.956 359.422 113.812C359.927 113.667 360.632 113.469 361.535 113.216C361.751 113.071 361.968 112.927 362.185 112.782C362.365 112.674 362.546 112.584 362.727 112.511C362.907 112.403 363.088 112.349 363.268 112.349C363.377 112.349 363.539 112.367 363.756 112.403C363.973 112.439 364.171 112.457 364.352 112.457C364.569 112.457 364.713 112.421 364.786 112.349C364.894 112.241 365.056 112.186 365.273 112.186C365.707 112.186 366.555 112.259 367.82 112.403C369.084 112.511 370.583 112.566 372.317 112.566C373.003 112.566 373.653 112.548 374.267 112.511C374.917 112.439 375.531 112.259 376.109 111.97C376.181 111.897 376.29 111.771 376.434 111.59C376.615 111.41 376.795 111.211 376.976 110.994C377.157 110.778 377.337 110.579 377.518 110.398C377.735 110.218 377.933 110.073 378.114 109.965C378.331 109.82 378.601 109.766 378.927 109.802C379.252 109.802 379.523 109.712 379.739 109.532C380.028 109.315 380.281 109.026 380.498 108.665C380.714 108.267 381.003 107.888 381.365 107.527L384.182 104.709C384.327 104.565 384.471 104.402 384.615 104.222C384.76 104.005 384.922 103.806 385.103 103.626C385.32 103.445 385.573 103.301 385.862 103.192C386.151 103.084 386.512 103.03 386.945 103.03H387.433ZM436.032 66.6208C436.105 66.8375 436.141 67.0001 436.141 67.1084C436.141 67.5057 435.96 67.8489 435.599 68.1378C435.274 68.4268 435.021 68.7338 434.841 69.0589C434.588 69.4562 434.389 69.8897 434.245 70.3592C434.136 70.8288 433.919 71.2081 433.594 71.497C433.414 71.6776 433.143 71.786 432.782 71.8221C432.457 71.8582 432.077 72.0027 431.644 72.2555C431.427 72.3639 431.21 72.5626 430.994 72.8515C430.777 73.1405 430.578 73.3391 430.398 73.4475C430.145 73.6281 429.874 73.7726 429.585 73.8809C429.296 73.9893 429.025 74.1338 428.772 74.3144C428.194 74.6756 427.635 75.109 427.093 75.6147C426.551 76.1204 425.901 76.6261 425.142 77.1318C425.07 77.204 424.907 77.3485 424.655 77.5652C424.438 77.7819 424.185 78.0348 423.896 78.3237C423.824 78.4321 423.625 78.5946 423.3 78.8113C423.011 79.0281 422.704 79.2809 422.379 79.5699C422.054 79.8227 421.747 80.0936 421.458 80.3826C421.205 80.6715 421.079 80.9424 421.079 81.1953C421.079 81.412 420.916 81.719 420.591 82.1163C420.302 82.4775 419.941 82.8929 419.508 83.3625C419.074 83.7959 418.623 84.2474 418.153 84.717C417.72 85.1865 417.358 85.62 417.069 86.0173C416.853 86.3063 416.6 86.6133 416.311 86.9384C416.058 87.2273 415.787 87.5705 415.498 87.9678C415.245 88.3651 415.029 88.7986 414.848 89.2681C414.667 89.7016 414.577 90.1892 414.577 90.731C414.577 90.7671 414.595 91.2186 414.631 92.0855C414.667 92.9163 414.794 93.8554 415.011 94.9029C415.083 95.3363 415.263 95.8059 415.552 96.3115C415.877 96.7811 416.112 97.2507 416.257 97.7202C416.437 98.4426 416.528 99.165 416.528 99.8874C416.564 100.574 416.744 101.224 417.069 101.838C417.106 101.91 417.16 101.946 417.232 101.946C417.304 101.91 417.376 102 417.449 102.217C417.593 102.795 417.629 103.283 417.557 103.68C417.485 104.077 417.593 104.529 417.882 105.035C417.918 105.107 417.99 105.161 418.099 105.197C418.243 105.233 418.316 105.378 418.316 105.631C418.316 105.703 418.297 105.793 418.261 105.901C418.261 105.974 418.261 106.046 418.261 106.118V106.227C418.261 106.299 418.279 106.497 418.316 106.823C418.388 107.148 418.46 107.527 418.532 107.96C418.605 108.394 418.677 108.827 418.749 109.261C418.857 109.694 418.966 110.037 419.074 110.29V110.398C419.074 110.471 419.056 110.561 419.02 110.669C419.02 110.778 419.02 110.868 419.02 110.94C419.02 111.049 419.056 111.103 419.128 111.103H419.453C419.526 111.103 419.562 111.193 419.562 111.374C419.598 111.554 419.634 111.753 419.67 111.97C419.706 112.15 419.76 112.331 419.833 112.511C419.905 112.692 420.049 112.782 420.266 112.782C420.772 112.782 421.259 112.511 421.729 111.97C422.198 111.428 422.668 110.868 423.138 110.29C423.246 110.146 423.318 110.001 423.354 109.857C423.427 109.712 423.499 109.55 423.571 109.369C423.643 109.188 423.752 108.99 423.896 108.773C424.077 108.52 424.348 108.231 424.709 107.906C424.817 107.798 424.962 107.726 425.142 107.689C425.359 107.617 425.503 107.545 425.576 107.473C425.901 107.039 426.154 106.588 426.334 106.118C426.515 105.612 426.732 105.143 426.984 104.709C427.273 104.276 427.635 103.915 428.068 103.626C428.538 103.301 429.17 103.102 429.964 103.03C430.037 103.21 430.127 103.355 430.235 103.463C430.344 103.536 430.398 103.662 430.398 103.843C430.398 104.168 430.307 104.511 430.127 104.872C429.946 105.233 429.73 105.594 429.477 105.956C429.224 106.281 428.953 106.588 428.664 106.877C428.375 107.13 428.14 107.328 427.96 107.473C427.201 108.051 426.37 108.972 425.467 110.236C424.6 111.464 423.697 112.71 422.758 113.974C422.505 114.299 422.289 114.643 422.108 115.004C421.928 115.365 421.729 115.672 421.512 115.925C421.332 116.105 421.133 116.196 420.916 116.196C420.699 116.16 420.501 116.214 420.32 116.358C420.248 116.394 420.122 116.521 419.941 116.737C419.796 116.954 419.634 117.189 419.453 117.442C419.273 117.695 419.092 117.911 418.912 118.092C418.731 118.309 418.586 118.417 418.478 118.417C418.406 118.417 418.316 118.399 418.207 118.363C418.135 118.363 418.063 118.363 417.99 118.363C417.882 118.363 417.738 118.453 417.557 118.634C417.413 118.814 417.214 119.013 416.961 119.23C416.744 119.483 416.491 119.699 416.203 119.88C415.95 120.061 415.679 120.151 415.39 120.151C414.848 120.151 414.415 119.88 414.089 119.338C413.764 118.832 413.403 118.255 413.006 117.604V117.496C413.006 117.424 413.006 117.333 413.006 117.225C413.042 117.117 413.06 117.026 413.06 116.954C413.06 116.918 413.042 116.9 413.006 116.9C413.006 116.9 413.006 116.882 413.006 116.846V116.792C412.717 116.575 412.609 116.304 412.681 115.979C412.753 115.618 412.717 115.076 412.572 114.354C412.464 113.74 412.265 113.125 411.976 112.511C411.688 111.861 411.489 111.265 411.38 110.723C411.2 109.929 411.11 109.188 411.11 108.502C411.146 107.816 411.11 107.202 411.001 106.66C410.929 106.263 410.803 105.865 410.622 105.468C410.441 105.071 410.297 104.655 410.189 104.222C410.08 103.861 409.99 103.481 409.918 103.084C409.881 102.687 409.827 102.289 409.755 101.892C409.827 101.892 409.918 101.838 410.026 101.73C410.134 101.621 410.189 101.513 410.189 101.404L409.972 101.296C409.827 101.224 409.755 101.116 409.755 100.971C409.755 100.899 409.737 100.682 409.701 100.321C409.665 99.9597 409.611 99.5985 409.538 99.2373C409.502 98.84 409.412 98.4968 409.267 98.2079C409.159 97.8828 409.033 97.7202 408.888 97.7202C408.744 97.7202 408.545 97.8647 408.292 98.1537C408.075 98.4065 407.841 98.6955 407.588 99.0206C407.335 99.3456 407.1 99.6707 406.884 99.9958C406.703 100.285 406.577 100.483 406.504 100.592C405.854 101.531 405.168 102.615 404.445 103.843C403.723 105.035 403.073 106.1 402.495 107.039C402.098 107.689 401.646 108.285 401.14 108.827C400.671 109.333 400.436 109.839 400.436 110.344C400.436 110.416 400.436 110.507 400.436 110.615C400.472 110.723 400.49 110.814 400.49 110.886C400.49 111.031 400.418 111.139 400.274 111.211C400.165 111.247 400.021 111.301 399.84 111.374C399.696 111.41 399.533 111.482 399.352 111.59C399.172 111.663 399.009 111.771 398.865 111.915C398.576 112.277 398.395 112.548 398.323 112.728C398.251 112.909 398.197 113.089 398.161 113.27C398.161 113.451 398.124 113.667 398.052 113.92C397.98 114.173 397.799 114.534 397.51 115.004C397.221 115.473 396.77 116.105 396.156 116.9C395.542 117.731 394.693 118.778 393.609 120.042C393.429 120.187 393.176 120.313 392.851 120.422C392.562 120.566 392.417 120.837 392.417 121.234C392.417 121.271 392.345 121.361 392.201 121.505C392.056 121.65 391.894 121.794 391.713 121.939C391.532 122.119 391.352 122.3 391.171 122.481C390.991 122.661 390.846 122.788 390.738 122.86C390.16 123.402 389.546 123.998 388.896 124.648C388.246 125.334 387.523 125.948 386.728 126.49C386.62 126.562 386.584 126.634 386.62 126.707C386.656 126.815 386.566 126.869 386.349 126.869C386.133 126.869 385.934 126.959 385.753 127.14C385.537 127.321 385.32 127.519 385.103 127.736C384.886 127.953 384.652 128.133 384.399 128.278C384.11 128.458 383.803 128.549 383.478 128.549C383.08 128.549 382.719 128.422 382.394 128.17C382.069 127.917 381.906 127.592 381.906 127.194C381.906 126.508 382.087 125.93 382.448 125.46C382.809 124.991 383.279 124.576 383.857 124.214C384.399 123.853 384.995 123.492 385.645 123.131C386.295 122.806 386.927 122.426 387.541 121.993C388.264 121.451 389.022 120.783 389.817 119.988C390.648 119.23 391.442 118.399 392.201 117.496C392.959 116.629 393.664 115.744 394.314 114.841C395 113.938 395.578 113.089 396.047 112.295C396.156 112.15 396.336 111.952 396.589 111.699C396.878 111.446 397.167 111.193 397.456 110.94C397.745 110.687 397.998 110.453 398.215 110.236C398.431 109.983 398.54 109.766 398.54 109.586C398.54 109.441 398.522 109.297 398.486 109.152C398.449 108.972 398.431 108.791 398.431 108.61C398.431 108.321 398.612 108.033 398.973 107.744C399.371 107.418 399.732 107.057 400.057 106.66C400.201 106.479 400.274 106.281 400.274 106.064C400.274 105.847 400.328 105.649 400.436 105.468C400.653 105.143 400.942 104.854 401.303 104.601C401.664 104.348 401.935 104.077 402.116 103.788C402.26 103.608 402.314 103.409 402.278 103.192C402.278 102.976 402.35 102.777 402.495 102.596C402.712 102.271 403.127 101.802 403.741 101.188C404.355 100.538 404.879 99.7971 405.312 98.9664C405.457 98.7135 405.511 98.4968 405.475 98.3162C405.475 98.1356 405.565 97.937 405.746 97.7202C406.288 96.8534 406.829 96.1129 407.371 95.4988C407.913 94.8848 408.184 94.3249 408.184 93.8193C408.184 93.4219 408.112 92.8982 407.967 92.248C407.823 91.5618 407.642 90.8393 407.425 90.0808C407.245 89.2862 407.028 88.4735 406.775 87.6427C406.558 86.7758 406.342 85.9631 406.125 85.2046C405.908 84.4822 405.71 83.7237 405.529 82.929C405.348 82.0983 405.15 81.3759 404.933 80.7618C404.861 80.6535 404.752 80.4368 404.608 80.1117C404.463 79.7505 404.265 79.3893 404.012 79.0281C403.759 78.6669 403.452 78.3598 403.091 78.107C402.73 77.818 402.296 77.6736 401.791 77.6736C401.177 77.6736 400.743 77.7639 400.49 77.9445C400.274 78.1251 400.093 78.3598 399.948 78.6488C399.84 78.9016 399.714 79.1906 399.569 79.5157C399.461 79.8408 399.226 80.1297 398.865 80.3826C398.648 80.5271 398.468 80.6174 398.323 80.6535C398.215 80.6535 398.124 80.6715 398.052 80.7077C397.98 80.7077 397.908 80.7618 397.835 80.8702C397.763 80.9786 397.691 81.2133 397.619 81.5745C397.474 82.1525 397.185 82.5859 396.752 82.8749C396.355 83.1277 395.975 83.507 395.614 84.0126C395.506 84.121 395.397 84.3377 395.289 84.6628C395.217 84.9518 395.108 85.2588 394.964 85.5839C394.856 85.909 394.693 86.1979 394.476 86.4508C394.296 86.6675 394.043 86.7758 393.718 86.7758C393.501 86.7758 393.212 86.6855 392.851 86.5049C392.526 86.3243 392.363 86.0715 392.363 85.7464C392.363 85.3852 392.58 84.8615 393.013 84.1752C393.483 83.4889 394.025 82.7665 394.639 82.008C395.253 81.2495 395.867 80.509 396.481 79.7866C397.131 79.0281 397.655 78.414 398.052 77.9445C398.377 77.5471 398.756 76.9692 399.19 76.2107C399.66 75.4522 400.219 74.8201 400.87 74.3144C401.158 74.0977 401.466 73.9171 401.791 73.7726C402.116 73.592 402.477 73.3572 402.874 73.0682C403.019 72.9599 403.235 72.7973 403.524 72.5806C403.813 72.3639 404.138 72.1472 404.5 71.9305C404.897 71.6776 405.312 71.4609 405.746 71.2803C406.179 71.0997 406.631 71.0094 407.1 71.0094C407.967 71.0094 408.581 71.3345 408.942 71.9846C409.304 72.5987 409.719 73.3753 410.189 74.3144C410.261 74.4589 410.387 74.6034 410.568 74.7478C410.785 74.8923 410.929 75.0187 411.001 75.1271C411.073 75.3799 411.11 75.7773 411.11 76.3191C411.146 76.8609 411.236 77.4027 411.38 77.9445C411.489 78.4501 411.615 79.1364 411.76 80.0033C411.94 80.8702 412.139 81.719 412.356 82.5498C412.572 83.3805 412.807 84.121 413.06 84.7712C413.349 85.3852 413.656 85.6922 413.981 85.6922C414.342 85.6922 414.83 85.4033 415.444 84.8253C415.588 84.6809 415.661 84.4822 415.661 84.2294C415.661 83.9404 415.715 83.7417 415.823 83.6334C415.932 83.525 416.076 83.4528 416.257 83.4167C416.437 83.3805 416.582 83.3083 416.69 83.1999C416.799 83.0193 416.853 82.8568 416.853 82.7123C416.889 82.5678 416.943 82.4234 417.015 82.2789C417.087 82.0983 417.232 81.8996 417.449 81.6829C417.702 81.4301 418.099 81.123 418.641 80.7618C418.713 80.6896 418.857 80.6354 419.074 80.5993C419.291 80.5271 419.435 80.4548 419.508 80.3826C419.796 79.9852 419.941 79.5157 419.941 78.9739C419.941 78.4321 420.067 77.9625 420.32 77.5652C420.429 77.4207 420.627 77.1859 420.916 76.8609C421.205 76.5358 421.53 76.2107 421.891 75.8856C422.253 75.5244 422.614 75.1632 422.975 74.802C423.336 74.4408 423.643 74.1338 423.896 73.8809C424.185 73.5559 424.474 73.2127 424.763 72.8515C425.052 72.4903 425.323 72.1652 425.576 71.8763C425.612 71.804 425.738 71.7318 425.955 71.6596C426.172 71.5873 426.298 71.5331 426.334 71.497C426.443 71.2442 426.533 70.9733 426.605 70.6843C426.677 70.3954 426.858 70.1064 427.147 69.8174C427.328 69.673 427.598 69.4924 427.96 69.2756C428.321 69.0228 428.7 68.788 429.097 68.5713C429.495 68.3184 429.892 68.1017 430.289 67.9211C430.687 67.7044 430.994 67.5238 431.21 67.3793C431.608 67.1626 432.095 66.982 432.673 66.8375C433.251 66.6569 433.938 66.5486 434.732 66.5124C434.949 66.5124 435.166 66.5305 435.382 66.5666C435.599 66.5666 435.816 66.5847 436.032 66.6208ZM454.508 103.463C454.652 103.788 454.725 104.132 454.725 104.493C454.725 104.854 454.634 105.179 454.454 105.468C454.309 105.721 454.111 105.974 453.858 106.227C453.641 106.443 453.388 106.66 453.099 106.877C452.846 107.057 452.63 107.256 452.449 107.473C452.377 107.617 452.323 107.834 452.287 108.123C452.287 108.376 452.214 108.574 452.07 108.719C451.636 109.188 451.095 109.586 450.444 109.911C449.83 110.236 449.289 110.651 448.819 111.157C448.53 111.482 448.313 111.807 448.169 112.132C448.024 112.421 447.699 112.764 447.194 113.162C446.796 113.451 446.417 113.848 446.056 114.354C445.695 114.859 445.297 115.365 444.864 115.871C444.43 116.34 443.925 116.756 443.347 117.117C442.769 117.514 442.083 117.713 441.288 117.713C441.107 117.713 440.945 117.695 440.8 117.659C440.656 117.659 440.493 117.64 440.313 117.604C440.313 117.604 440.186 117.532 439.933 117.388C439.681 117.243 439.392 116.954 439.067 116.521C438.778 116.087 438.507 115.473 438.254 114.679C438.001 113.884 437.875 112.837 437.875 111.536C437.875 111.211 437.929 110.868 438.037 110.507C438.182 110.109 438.326 109.73 438.471 109.369C438.651 109.008 438.796 108.647 438.904 108.285C439.049 107.888 439.121 107.527 439.121 107.202C439.121 106.877 439.049 106.57 438.904 106.281C438.76 105.992 438.687 105.685 438.687 105.36C438.687 105.035 438.832 104.818 439.121 104.709C439.41 104.565 439.554 104.312 439.554 103.951C439.554 103.77 439.536 103.608 439.5 103.463C439.5 103.319 439.5 103.156 439.5 102.976C439.5 102.542 439.572 102.253 439.717 102.109C439.861 101.928 439.933 101.693 439.933 101.404C439.933 101.152 439.879 100.971 439.771 100.863C439.699 100.718 439.663 100.538 439.663 100.321C439.663 100.068 439.753 99.8333 439.933 99.6165C440.114 99.3637 440.24 99.0206 440.313 98.5871C440.566 97.7564 440.764 96.7811 440.909 95.6614C441.053 94.5055 441.216 93.2775 441.396 91.9771C441.613 90.6407 441.848 89.232 442.101 87.7511C442.353 86.234 442.715 84.717 443.184 83.1999C443.329 82.6943 443.473 81.9719 443.618 81.0327C443.798 80.0575 443.907 79.0461 443.943 77.9986C443.762 77.8903 443.636 77.8361 443.564 77.8361C443.275 77.8361 443.058 78.0709 442.913 78.5404C442.805 79.01 442.624 79.3531 442.372 79.5699C442.191 79.7143 441.974 79.7866 441.721 79.7866C441.505 79.7866 441.306 79.8408 441.125 79.9491C440.909 80.1297 440.728 80.3465 440.584 80.5993C440.475 80.816 440.349 81.0327 440.204 81.2495C440.096 81.4662 439.933 81.6829 439.717 81.8996C439.5 82.1163 439.175 82.2789 438.741 82.3872C438.669 82.4234 438.633 82.5137 438.633 82.6581C438.633 82.7665 438.561 82.8207 438.416 82.8207H438.308C438.308 82.7123 438.218 82.622 438.037 82.5498C437.893 82.4414 437.712 82.3331 437.495 82.2247C437.279 82.1163 437.08 81.9899 436.899 81.8454C436.755 81.701 436.683 81.5204 436.683 81.3036C436.683 80.9786 436.755 80.7257 436.899 80.5451C437.044 80.3645 437.242 80.22 437.495 80.1117C437.748 80.0033 438.001 79.8949 438.254 79.7866C438.543 79.6421 438.832 79.4434 439.121 79.1906C439.482 78.8294 439.879 78.414 440.313 77.9445C440.782 77.4749 441.252 77.0053 441.721 76.5358C442.191 76.0301 442.679 75.5605 443.184 75.1271C443.726 74.6575 444.268 74.2421 444.81 73.8809C444.918 73.8087 444.936 73.7365 444.864 73.6642C444.828 73.592 444.936 73.5378 445.189 73.5017C445.297 73.5017 445.442 73.4475 445.622 73.3391C445.839 73.1947 446.038 73.0502 446.218 72.9057C446.435 72.7251 446.616 72.5806 446.76 72.4723C446.905 72.3278 446.995 72.2555 447.031 72.2555C447.103 72.2555 447.176 72.2736 447.248 72.3097C447.356 72.3097 447.446 72.3097 447.519 72.3097C447.808 72.3097 448.133 72.2375 448.494 72.093C448.891 71.9124 449.596 71.8221 450.607 71.8221C451.004 71.8221 451.347 71.9485 451.636 72.2014C451.961 72.4181 452.124 72.8876 452.124 73.61C452.124 73.8268 452.034 74.1699 451.853 74.6395C451.672 75.109 451.474 75.6689 451.257 76.3191C451.04 76.9692 450.842 77.6916 450.661 78.4863C450.481 79.2809 450.39 80.1117 450.39 80.9786C450.39 81.3398 450.408 81.719 450.444 82.1163C450.481 82.4775 450.499 82.8387 450.499 83.1999C450.499 83.8501 450.372 84.41 450.119 84.8795C449.903 85.313 449.74 85.8367 449.632 86.4508C449.487 87.2093 449.415 88.0039 449.415 88.8347C449.415 89.6654 449.361 90.4962 449.252 91.327C448.963 93.0607 448.62 94.7403 448.223 96.3657C447.826 97.9911 447.483 99.6707 447.194 101.404C447.085 101.982 446.905 102.723 446.652 103.626C446.435 104.529 446.327 105.486 446.327 106.497C446.327 107.437 446.489 108.303 446.814 109.098C447.356 109.062 447.808 108.899 448.169 108.61C448.53 108.321 448.855 107.996 449.144 107.635C449.433 107.274 449.704 106.895 449.957 106.497C450.246 106.1 450.553 105.757 450.878 105.468C451.095 105.287 451.402 105.161 451.799 105.089C452.232 104.98 452.594 104.836 452.883 104.655C453.171 104.475 453.37 104.222 453.478 103.897C453.587 103.572 453.822 103.409 454.183 103.409C454.255 103.409 454.309 103.427 454.345 103.463C454.382 103.463 454.436 103.463 454.508 103.463ZM456.513 48.8497C456.621 49.0664 456.675 49.3012 456.675 49.554C456.675 49.9875 456.531 50.457 456.242 50.9627C455.953 51.4684 455.628 51.956 455.266 52.4256C454.941 52.8952 454.616 53.3286 454.291 53.7259C453.966 54.0871 453.767 54.34 453.695 54.4844C453.478 54.954 453.298 55.5861 453.153 56.3807C453.045 57.1754 452.81 57.8978 452.449 58.548C452.305 58.8369 452.178 59.0536 452.07 59.1981C451.961 59.3426 451.835 59.6677 451.691 60.1734C451.546 60.4984 451.365 60.8777 451.149 61.3111C450.932 61.7446 450.697 62.16 450.444 62.5573C450.192 62.9185 449.939 63.2436 449.686 63.5325C449.433 63.7854 449.198 63.9118 448.982 63.9118C448.042 63.9118 447.392 63.4603 447.031 62.5573C446.706 61.6182 446.543 60.5165 446.543 59.2523C446.543 58.7466 446.561 58.2229 446.598 57.6811C446.67 57.1393 446.742 56.6155 446.814 56.1098C446.887 55.568 447.067 55.1707 447.356 54.9179C447.645 54.665 447.88 54.2677 448.06 53.7259C448.241 53.2564 448.367 52.8049 448.44 52.3714C448.512 51.9018 448.584 51.4684 448.656 51.0711C448.765 50.6738 448.873 50.3306 448.982 50.0417C449.126 49.7166 449.343 49.4457 449.632 49.229C449.848 49.0845 450.101 48.9581 450.39 48.8497C450.715 48.7413 451.04 48.6691 451.365 48.633C451.727 48.5607 452.07 48.5066 452.395 48.4704C452.756 48.4343 453.045 48.4163 453.262 48.4163C453.262 48.4524 453.424 48.3982 453.749 48.2537C454.074 48.0731 454.436 47.9828 454.833 47.9828C454.905 47.9828 455.14 48.0551 455.537 48.1995C455.971 48.3079 456.296 48.5246 456.513 48.8497ZM493.409 67.7044C493.373 67.8128 493.355 67.9572 493.355 68.1378C493.355 68.3184 493.355 68.481 493.355 68.6255C493.391 68.7338 493.409 68.8602 493.409 69.0047C493.409 69.4021 493.337 69.7091 493.193 69.9258C493.048 70.1064 492.867 70.2509 492.651 70.3592C492.434 70.4676 492.199 70.5579 491.946 70.6301C491.73 70.7024 491.549 70.8107 491.405 70.9552C491.296 71.0636 491.134 71.2442 490.917 71.497C490.7 71.7137 490.466 71.9485 490.213 72.2014C489.996 72.4542 489.761 72.689 489.508 72.9057C489.292 73.1224 489.111 73.285 488.967 73.3933C488.569 73.61 488.045 73.8087 487.395 73.9893C486.781 74.1338 486.221 74.3324 485.716 74.5853C485.21 74.8381 484.795 75.0729 484.47 75.2896C484.144 75.4702 483.837 75.6328 483.549 75.7773C483.26 75.9217 482.916 76.0301 482.519 76.1023C482.122 76.1746 481.58 76.2107 480.894 76.2107C480.894 76.1385 480.858 76.0482 480.785 75.9398C480.713 75.8314 480.641 75.7773 480.569 75.7773C480.532 75.7773 480.496 75.7953 480.46 75.8314C480.135 76.1926 479.756 76.3913 479.322 76.4274C478.925 76.4635 478.528 76.5719 478.13 76.7525C477.769 76.897 477.444 77.2582 477.155 77.8361C476.902 78.414 476.776 79.4254 476.776 80.8702C476.776 81.2314 476.794 81.5926 476.83 81.9538C476.866 82.315 476.884 82.6762 476.884 83.0374C476.884 84.0126 476.794 85.0962 476.613 86.2882C476.433 87.4441 476.234 88.6721 476.017 89.9725C475.801 91.2367 475.566 92.5551 475.313 93.9276C475.096 95.2641 474.934 96.6366 474.825 98.0453C474.645 100.068 474.446 102.145 474.23 104.276C474.049 106.407 473.959 108.502 473.959 110.561C474.898 110.272 475.656 109.766 476.234 109.044C476.848 108.285 477.462 107.581 478.076 106.931C478.401 106.57 478.763 106.19 479.16 105.793C479.593 105.36 480.027 104.926 480.46 104.493C480.496 104.457 480.532 104.366 480.569 104.222C480.641 104.041 480.713 103.861 480.785 103.68C480.894 103.463 481.002 103.283 481.11 103.138C481.219 102.958 481.327 102.867 481.435 102.867C481.508 102.867 481.598 102.885 481.706 102.922C481.815 102.958 481.905 102.976 481.977 102.976C482.086 102.976 482.194 102.885 482.302 102.705C482.411 102.524 482.537 102.326 482.682 102.109C482.862 101.892 483.061 101.693 483.278 101.513C483.494 101.332 483.765 101.242 484.09 101.242C484.199 101.242 484.289 101.26 484.361 101.296C484.47 101.296 484.524 101.386 484.524 101.567C484.524 102.109 484.307 102.578 483.874 102.976C483.476 103.373 483.151 103.752 482.898 104.113C481.815 105.667 480.605 107.22 479.268 108.773C477.968 110.326 476.758 112.132 475.638 114.191C475.458 114.444 475.313 114.624 475.205 114.733C475.096 114.841 474.988 114.95 474.88 115.058C474.771 115.13 474.609 115.22 474.392 115.329C474.211 115.437 473.941 115.618 473.579 115.871C473.218 116.087 472.911 116.358 472.658 116.683C472.405 117.008 472.135 117.315 471.846 117.604C471.593 117.929 471.286 118.182 470.925 118.363C470.563 118.58 470.112 118.688 469.57 118.688C469.281 118.652 468.956 118.453 468.595 118.092C468.234 117.731 467.89 117.333 467.565 116.9C467.276 116.43 467.024 115.961 466.807 115.491C466.59 115.022 466.482 114.679 466.482 114.462C466.482 114.209 466.5 113.812 466.536 113.27C466.608 112.692 466.698 112.042 466.807 111.319C466.915 110.597 467.024 109.839 467.132 109.044C467.276 108.213 467.403 107.382 467.511 106.552C467.583 106.552 467.674 106.534 467.782 106.497C467.89 106.425 467.945 106.353 467.945 106.281C467.872 106.172 467.818 106.046 467.782 105.901C467.674 105.685 467.62 105.342 467.62 104.872C467.62 104.294 467.674 103.608 467.782 102.813C467.89 101.982 467.999 101.17 468.107 100.375C468.252 99.5443 468.378 98.7858 468.486 98.0995C468.631 97.3771 468.721 96.8172 468.757 96.4199C468.793 95.842 468.811 95.2821 468.811 94.7403C468.811 94.1985 468.83 93.6567 468.866 93.1149C468.902 92.5731 468.974 92.0133 469.082 91.4353C469.191 90.8574 469.353 90.2253 469.57 89.539C469.678 88.8166 469.733 88.0762 469.733 87.3176C469.769 86.5591 469.841 85.8187 469.949 85.0962C470.022 84.735 470.148 84.3197 470.329 83.8501C470.509 83.3805 470.654 82.8568 470.762 82.2789C470.834 81.8816 470.888 81.4301 470.925 80.9244C470.961 80.3826 470.997 79.8769 471.033 79.4073C471.069 78.9378 471.087 78.5404 471.087 78.2154C471.123 77.8903 471.141 77.7458 471.141 77.7819C470.997 77.5652 470.563 77.4027 469.841 77.2943C469.155 77.1859 468.414 77.1318 467.62 77.1318C466.464 77.1318 465.506 77.2762 464.748 77.5652C463.989 77.818 463.43 78.3057 463.068 79.0281C462.96 79.2448 462.87 79.4796 462.797 79.7324C462.761 79.9852 462.689 80.2381 462.581 80.4909C462.509 80.7077 462.364 80.8883 462.147 81.0327C461.967 81.1772 461.66 81.2495 461.226 81.2495C461.01 81.2495 460.775 81.2133 460.522 81.1411C460.305 81.0689 460.197 80.8702 460.197 80.5451C460.197 80.0394 460.323 79.606 460.576 79.2448C460.829 78.8836 461.136 78.5404 461.497 78.2154C461.894 77.8903 462.31 77.5833 462.743 77.2943C463.177 76.9692 463.556 76.608 463.881 76.2107C464.062 76.0301 464.134 75.8314 464.098 75.6147C464.062 75.398 464.116 75.1813 464.26 74.9646C464.333 74.8562 464.459 74.784 464.64 74.7478C464.856 74.7117 465.001 74.6575 465.073 74.5853C465.073 74.5853 465.199 74.3505 465.452 73.8809C465.705 73.3753 466.084 72.8154 466.59 72.2014C467.096 71.5873 467.692 71.0275 468.378 70.5218C469.1 70.0161 469.895 69.7633 470.762 69.7633C470.834 69.7633 471.015 69.8536 471.304 70.0342C471.593 70.1786 471.846 70.2509 472.062 70.2509C472.46 70.2509 472.731 69.9619 472.875 69.384C473.056 68.7699 473.164 68.0656 473.2 67.271C473.272 66.4763 473.308 65.6997 473.308 64.9412C473.345 64.1466 473.435 63.5867 473.579 63.2616C473.796 62.7198 474.175 62.1238 474.717 61.4737C475.295 60.8235 475.855 60.1914 476.397 59.5774C476.902 58.9995 477.336 58.4757 477.697 58.0061C478.058 57.5366 478.419 57.1393 478.781 56.8142C479.142 56.453 479.539 56.164 479.973 55.9473C480.442 55.7306 481.02 55.6042 481.706 55.568C481.49 55.9654 481.309 56.471 481.165 57.0851C481.02 57.6991 480.876 58.3493 480.731 59.0356C480.623 59.6857 480.514 60.354 480.406 61.0402C480.298 61.6904 480.171 62.2864 480.027 62.8282V62.9907C480.027 63.1352 480.027 63.2616 480.027 63.37C480.063 63.4783 480.081 63.6048 480.081 63.7493C480.081 63.8937 480.027 64.0563 479.918 64.2369C479.81 64.4175 479.684 64.6884 479.539 65.0496C479.431 65.4108 479.322 65.8984 479.214 66.5124C479.106 67.1265 479.052 67.9572 479.052 69.0047C479.052 69.5104 479.088 69.9077 479.16 70.1967C479.232 70.4495 479.359 70.6482 479.539 70.7927C479.756 70.901 480.045 70.9733 480.406 71.0094C480.803 71.0094 481.309 71.0094 481.923 71.0094C484.199 71.0094 486.059 70.8107 487.504 70.4134C488.948 70.0161 489.978 69.5104 490.592 68.8964C490.736 68.7519 491.007 68.481 491.405 68.0837C491.838 67.6502 492.272 67.4335 492.705 67.4335C492.994 67.4335 493.229 67.5238 493.409 67.7044Z" fill="white"/>
<g filter="url(#filter1_g_4_67)">
<rect x="573.716" y="95.6792" width="20" height="20" rx="10" transform="rotate(-45 573.716 95.6792)" fill="white"/>
</g>
<defs>
<filter id="filter0_g_4_67" x="-133.821" y="2.47955e-05" width="762.8" height="191.8" filterUnits="userSpaceOnUse" color-interpolation-filters="sRGB">
<feFlood flood-opacity="0" result="BackgroundImageFix"/>
<feBlend mode="normal" in="SourceGraphic" in2="BackgroundImageFix" result="shape"/>
<feTurbulence type="fractalNoise" baseFrequency="0.026525197550654411 0.026525197550654411" numOctaves="3" seed="3464" />
<feDisplacementMap in="shape" scale="53.799999237060547" xChannelSelector="R" yChannelSelector="G" result="displacedImage" width="100%" height="100%" />
<feMerge result="effect1_texture_4_67">
<feMergeNode in="displacedImage"/>
</feMerge>
</filter>
<filter id="filter1_g_4_67" x="570.358" y="78.1792" width="35" height="35" filterUnits="userSpaceOnUse" color-interpolation-filters="sRGB">
<feFlood flood-opacity="0" result="BackgroundImageFix"/>
<feBlend mode="normal" in="SourceGraphic" in2="BackgroundImageFix" result="shape"/>
<feTurbulence type="fractalNoise" baseFrequency="0.13513512909412384 0.13513512909412384" numOctaves="3" seed="1453" />
<feDisplacementMap in="shape" scale="15" xChannelSelector="R" yChannelSelector="G" result="displacedImage" width="100%" height="100%" />
<feMerge result="effect1_texture_4_67">
<feMergeNode in="displacedImage"/>
</feMerge>
</filter>
<linearGradient id="paint0_linear_4_67" x1="-21.9806" y1="95.9" x2="602.079" y2="95.9" gradientUnits="userSpaceOnUse">
<stop stop-opacity="0"/>
<stop offset="0.677911"/>
</linearGradient>
</defs>
</svg>
