<svg width="624" height="192" viewBox="0 0 624 192" fill="none" xmlns="http://www.w3.org/2000/svg">
<g opacity="0.46" filter="url(#filter0_g_4_57)">
<path d="M-112.284 26.9H509.277L596.716 95.9L509.277 164.9H-112.284V26.9Z" fill="url(#paint0_linear_4_57)"/>
</g>
<path d="M278.26 84.6628C278.151 86.0715 277.935 87.426 277.61 88.7263C277.285 89.9905 276.851 91.2547 276.309 92.5189C275.804 93.7831 275.172 95.1015 274.413 96.4741C273.655 97.8105 272.788 99.2553 271.812 100.809C271.74 100.989 271.686 101.206 271.65 101.459C271.614 101.675 271.542 101.874 271.433 102.055C271.18 102.344 270.837 102.615 270.404 102.867C269.97 103.12 269.627 103.391 269.374 103.68C269.23 103.861 269.158 104.059 269.158 104.276C269.158 104.493 269.103 104.691 268.995 104.872C268.814 105.125 268.525 105.396 268.128 105.685C267.731 105.938 267.334 106.208 266.936 106.497C266.792 106.642 266.701 106.823 266.665 107.039C266.665 107.256 266.575 107.364 266.394 107.364C266.322 107.364 266.232 107.364 266.123 107.364C266.015 107.328 265.925 107.31 265.853 107.31C265.636 107.31 265.455 107.491 265.311 107.852C265.202 108.177 265.076 108.412 264.932 108.556C264.751 108.665 264.534 108.719 264.281 108.719C264.065 108.719 263.866 108.791 263.685 108.936C263.107 109.369 262.602 109.857 262.168 110.398C261.735 110.904 261.175 111.356 260.489 111.753C260.308 111.825 260.091 111.879 259.839 111.915C259.622 111.952 259.441 112.042 259.297 112.186C259.116 112.259 259.008 112.421 258.972 112.674C258.972 112.891 258.881 112.999 258.701 112.999C258.629 112.999 258.538 112.999 258.43 112.999C258.322 112.963 258.231 112.945 258.159 112.945C257.978 112.945 257.852 113.089 257.78 113.378C257.744 113.667 257.635 113.812 257.455 113.812C257.382 113.812 257.292 113.812 257.184 113.812C257.112 113.776 257.039 113.758 256.967 113.758C256.75 113.758 256.57 113.938 256.425 114.299C256.317 114.661 256.19 114.895 256.046 115.004C255.685 115.257 255.233 115.383 254.691 115.383C254.186 115.347 253.698 115.491 253.229 115.816C253.048 115.889 252.904 116.015 252.795 116.196C252.723 116.34 252.578 116.467 252.362 116.575C251.675 116.972 250.881 117.297 249.978 117.55C249.075 117.839 248.045 117.984 246.89 117.984C246.203 117.984 245.481 117.929 244.722 117.821C244.397 117.496 244.018 117.261 243.585 117.117C243.151 117.008 242.682 116.9 242.176 116.792C241.706 116.647 241.201 116.485 240.659 116.304C240.117 116.123 239.575 115.816 239.033 115.383C238.528 114.986 238.058 114.57 237.625 114.137C237.227 113.667 236.758 113.27 236.216 112.945C235.927 112.8 235.62 112.692 235.295 112.62C235.006 112.511 234.771 112.367 234.591 112.186C234.41 112.006 234.338 111.807 234.374 111.59C234.41 111.374 234.338 111.157 234.157 110.94C234.085 110.832 233.94 110.76 233.724 110.723C233.543 110.687 233.417 110.615 233.344 110.507C233.164 110.254 233.037 110.001 232.965 109.748C232.893 109.459 232.767 109.188 232.586 108.936C232.153 108.394 231.683 107.96 231.177 107.635C230.708 107.274 230.365 106.895 230.148 106.497C229.967 106.172 229.769 105.721 229.552 105.143C229.371 104.529 229.173 103.879 228.956 103.192C228.775 102.47 228.577 101.766 228.36 101.079C228.143 100.357 227.926 99.743 227.71 99.2373C227.096 97.9008 226.789 96.0587 226.789 93.7109C226.789 92.7718 226.825 91.7604 226.897 90.6768C226.969 89.5932 227.078 88.5096 227.222 87.426C227.403 86.3424 227.583 85.2949 227.764 84.2835C227.981 83.2361 228.233 82.2789 228.522 81.412C228.739 80.6896 228.866 79.9672 228.902 79.2448C228.938 78.4863 229.082 77.8542 229.335 77.3485C229.371 77.2401 229.48 77.1318 229.66 77.0234C229.877 76.8789 230.039 76.7164 230.148 76.5358C230.256 76.2829 230.31 76.0843 230.31 75.9398C230.31 75.7592 230.383 75.5605 230.527 75.3438C230.599 75.1993 230.726 75.0549 230.906 74.9104C231.123 74.7659 231.268 74.6395 231.34 74.5311C231.448 74.3505 231.502 74.1518 231.502 73.9351C231.538 73.7184 231.629 73.5197 231.773 73.3391C231.954 73.0502 232.207 72.7793 232.532 72.5264C232.893 72.2736 233.164 72.0027 233.344 71.7137C233.489 71.5331 233.561 71.3345 233.561 71.1178C233.561 70.8649 233.633 70.6482 233.778 70.4676C233.85 70.3592 233.977 70.3051 234.157 70.3051C234.374 70.2689 234.518 70.1967 234.591 70.0883C234.735 69.9077 234.807 69.7091 234.807 69.4924C234.807 69.2756 234.88 69.077 235.024 68.8964C235.241 68.5713 235.584 68.2101 236.053 67.8128C236.559 67.3793 237.011 66.9278 237.408 66.4583C238.13 65.6636 238.853 64.9051 239.575 64.1827C240.334 63.4603 241.11 62.774 241.905 62.1238C242.736 61.4376 243.603 60.7693 244.506 60.1192C245.445 59.4329 246.456 58.7105 247.54 57.952C248.262 57.374 249.003 56.8503 249.761 56.3807C250.375 55.9834 251.061 55.5861 251.82 55.1888C252.578 54.7915 253.301 54.5025 253.987 54.3219C254.023 54.3219 254.059 54.2677 254.095 54.1594C254.132 54.0149 254.24 53.9426 254.421 53.9426C254.746 53.8704 255.215 53.8162 255.829 53.7801C256.443 53.7079 257.075 53.6717 257.726 53.6717C258.737 53.6717 259.658 53.762 260.489 53.9426C261.175 54.1232 261.879 54.2677 262.602 54.3761C263.36 54.4844 264.119 54.647 264.877 54.8637C265.672 55.0443 266.467 55.3152 267.261 55.6764C268.092 56.0015 268.923 56.4891 269.754 57.1393C269.934 57.2837 270.079 57.5185 270.187 57.8436C270.331 58.1326 270.602 58.2951 271 58.3312C271.397 58.3674 271.722 58.548 271.975 58.873C272.264 59.1981 272.499 59.6135 272.679 60.1192C272.896 60.5887 273.077 61.1125 273.221 61.6904C273.402 62.2322 273.6 62.7379 273.817 63.2074C273.889 63.3158 274.214 63.9299 274.792 65.0496C275.406 66.1693 276.02 67.578 276.634 69.2756C276.743 69.5646 276.815 69.9077 276.851 70.3051C276.887 70.7024 276.96 71.0275 277.068 71.2803C277.14 71.497 277.267 71.6957 277.447 71.8763C277.664 72.0208 277.808 72.2375 277.881 72.5264C278.061 73.4294 278.206 74.5492 278.314 75.8856C278.422 77.2221 278.477 78.6307 278.477 80.1117C278.477 80.8702 278.459 81.6468 278.422 82.4414C278.386 83.1999 278.332 83.9404 278.26 84.6628ZM271.812 78.5946C271.704 77.6916 271.433 76.7886 271 75.8856C270.566 74.9465 270.295 74.2241 270.187 73.7184C269.97 72.8515 269.663 72.093 269.266 71.4428C268.869 70.7566 268.453 70.1425 268.02 69.6007C267.622 69.0589 267.261 68.5893 266.936 68.192C266.647 67.7586 266.503 67.3613 266.503 67.0001C266.503 66.8917 266.503 66.7653 266.503 66.6208C266.539 66.4763 266.557 66.3499 266.557 66.2415C266.557 66.0971 266.34 65.79 265.907 65.3205C265.473 64.8509 265.004 64.4175 264.498 64.0202C264.245 63.8396 263.92 63.7312 263.523 63.6951C263.126 63.6228 262.782 63.4603 262.493 63.2074C262.204 62.9907 261.97 62.7018 261.789 62.3406C261.608 61.9794 261.428 61.7265 261.247 61.582C260.561 61.0402 259.604 60.6249 258.376 60.3359C257.148 60.0469 255.956 59.9025 254.8 59.9025C254.403 59.9025 253.969 59.9386 253.5 60.0108C253.03 60.0469 252.795 60.1734 252.795 60.3901C251.495 60.5707 250.393 60.7693 249.49 60.9861C248.623 61.2028 247.865 61.4556 247.215 61.7446C246.601 61.9974 246.059 62.2864 245.589 62.6115C245.156 62.9365 244.722 63.2797 244.289 63.6409C244.108 63.7493 243.964 63.8757 243.855 64.0202C243.783 64.1646 243.657 64.2911 243.476 64.3994C243.079 64.6884 242.7 64.9051 242.338 65.0496C242.013 65.1941 241.724 65.3927 241.472 65.6456C241.291 65.8262 241.201 66.0248 241.201 66.2415C241.237 66.4583 241.201 66.6569 241.092 66.8375C240.948 67.0181 240.731 67.1626 240.442 67.271C240.153 67.3432 239.954 67.4696 239.846 67.6502C239.738 67.8308 239.647 68.0475 239.575 68.3004C239.539 68.5532 239.485 68.7519 239.413 68.8964C238.871 70.0883 238.329 71.1539 237.787 72.093C237.282 72.996 236.884 73.8087 236.595 74.5311C236.379 75.0729 236.198 75.7953 236.053 76.6983C235.909 77.6013 235.783 78.5585 235.674 79.5699C235.602 80.5451 235.53 81.5204 235.458 82.4956C235.421 83.4347 235.385 84.2294 235.349 84.8795C235.349 85.0962 235.349 85.2588 235.349 85.3671C235.385 85.4394 235.403 85.5658 235.403 85.7464V86.234C235.439 86.6314 235.476 86.9745 235.512 87.2635C235.548 87.5163 235.584 87.7511 235.62 87.9678C235.656 88.1484 235.692 88.329 235.728 88.5096C235.765 88.6902 235.783 88.9069 235.783 89.1598C235.783 89.232 235.765 89.3765 235.728 89.5932C235.692 89.7738 235.584 90.0266 235.403 90.3517C235.439 90.749 235.566 91.1464 235.783 91.5437C235.999 91.941 236.144 92.3383 236.216 92.7357C236.288 93.133 236.324 93.4942 236.324 93.8193C236.324 94.1082 236.324 94.3972 236.324 94.6861V95.6614C236.324 96.2032 236.379 96.6005 236.487 96.8534C236.631 97.1062 236.794 97.4855 236.975 97.9911C237.119 98.3885 237.209 98.7858 237.245 99.1831C237.282 99.5804 237.336 99.8694 237.408 100.05C237.516 100.303 237.697 100.483 237.95 100.592C238.239 100.7 238.474 100.917 238.654 101.242C238.835 101.531 238.961 101.874 239.033 102.271C239.106 102.669 239.232 102.994 239.413 103.247C239.485 103.355 239.611 103.427 239.792 103.463C240.009 103.499 240.153 103.572 240.225 103.68C240.37 103.861 240.442 104.059 240.442 104.276C240.478 104.493 240.55 104.691 240.659 104.872C240.731 104.98 240.857 105.053 241.038 105.089C241.255 105.125 241.399 105.197 241.472 105.305C241.616 105.414 241.67 105.612 241.634 105.901C241.634 106.154 241.706 106.353 241.851 106.497C242.176 106.823 242.682 107.111 243.368 107.364C244.09 107.581 244.668 107.834 245.102 108.123C245.282 108.231 245.409 108.43 245.481 108.719C245.589 109.008 245.734 109.206 245.914 109.315C246.095 109.459 246.294 109.55 246.51 109.586C246.763 109.622 246.98 109.676 247.16 109.748C248.063 110.326 248.822 110.723 249.436 110.94C250.05 111.121 250.7 111.211 251.386 111.211C252.037 111.211 252.795 111.103 253.662 110.886C254.529 110.669 255.36 110.398 256.154 110.073C256.985 109.748 257.708 109.423 258.322 109.098C258.972 108.737 259.423 108.412 259.676 108.123C259.676 108.087 259.712 108.069 259.784 108.069C259.857 108.069 259.947 108.087 260.055 108.123C260.2 108.159 260.308 108.177 260.38 108.177C260.561 108.177 260.814 107.996 261.139 107.635C261.464 107.274 261.789 106.859 262.114 106.389C262.439 105.92 262.746 105.468 263.035 105.035C263.36 104.565 263.577 104.24 263.685 104.059C264.01 103.59 264.372 103.102 264.769 102.596C265.202 102.055 265.618 101.531 266.015 101.025C266.412 100.483 266.774 99.9597 267.099 99.454C267.424 98.9483 267.641 98.4607 267.749 97.9911C267.929 97.3049 268.11 96.8534 268.291 96.6366C268.471 96.3838 268.706 96.0226 268.995 95.553C269.212 95.1557 269.392 94.7945 269.537 94.4694C269.681 94.1443 269.808 93.8193 269.916 93.4942C270.024 93.1691 270.133 92.826 270.241 92.4648C270.35 92.0674 270.458 91.6159 270.566 91.1103C270.675 90.6768 270.729 90.2434 270.729 89.8099C270.729 89.3765 270.729 88.943 270.729 88.5096C270.765 88.0762 270.819 87.6788 270.891 87.3176C271 86.9203 271.18 86.5591 271.433 86.234C271.614 85.5116 271.74 84.6989 271.812 83.7959C271.885 82.8568 271.921 81.9357 271.921 81.0327C271.921 80.5993 271.921 80.1839 271.921 79.7866C271.921 79.3531 271.885 78.9558 271.812 78.5946ZM315.861 83.1999C315.789 83.3805 315.626 83.6334 315.373 83.9585C315.12 84.2474 314.994 84.735 314.994 85.4213C314.994 85.9993 315.066 86.5952 315.211 87.2093C315.355 87.7872 315.427 88.3471 315.427 88.8889C315.427 89.8641 315.301 90.9477 315.048 92.1397C314.831 93.2955 314.579 94.3972 314.29 95.4447C314.037 96.456 313.784 97.3229 313.531 98.0453C313.314 98.7316 313.206 99.0928 313.206 99.1289V100.538C313.206 100.899 313.188 101.224 313.152 101.513C313.152 101.802 313.116 102.055 313.044 102.271C313.007 102.307 312.935 102.344 312.827 102.38C312.718 102.38 312.646 102.47 312.61 102.651C312.466 103.229 312.177 103.644 311.743 103.897C311.346 104.113 310.967 104.511 310.605 105.089C310.461 105.305 310.298 105.594 310.118 105.956C309.937 106.317 309.757 106.678 309.576 107.039C309.395 107.4 309.233 107.726 309.088 108.014C308.98 108.267 308.926 108.394 308.926 108.394C308.89 108.719 308.547 109.17 307.896 109.748C307.246 110.326 306.506 110.922 305.675 111.536C304.844 112.15 303.995 112.764 303.129 113.378C302.298 113.956 301.684 114.426 301.286 114.787C300.817 115.22 300.42 115.618 300.094 115.979C299.806 116.34 299.517 116.647 299.228 116.9C298.975 117.189 298.686 117.406 298.361 117.55C298.072 117.731 297.692 117.821 297.223 117.821C297.042 117.821 296.844 117.803 296.627 117.767C296.446 117.767 296.248 117.767 296.031 117.767C295.706 117.767 295.363 117.785 295.002 117.821C294.676 117.857 294.333 117.929 293.972 118.038C293.972 118.038 293.773 118.056 293.376 118.092C292.979 118.164 292.545 118.236 292.076 118.309C291.606 118.381 291.155 118.453 290.721 118.525C290.324 118.634 290.071 118.724 289.963 118.796C289.674 119.085 289.511 119.627 289.475 120.422C289.439 121.253 289.331 122.21 289.15 123.293C289.042 123.763 288.933 124.16 288.825 124.485C288.717 124.81 288.608 125.099 288.5 125.352C288.428 125.641 288.355 125.93 288.283 126.219C288.247 126.544 288.229 126.923 288.229 127.357C288.229 127.646 288.229 127.935 288.229 128.224C288.265 128.513 288.283 128.802 288.283 129.091C288.283 130.138 288.103 131.565 287.741 133.371C287.416 135.213 287.073 137.109 286.712 139.06C286.604 139.638 286.531 140.27 286.495 140.956C286.459 141.678 286.405 142.13 286.333 142.311C286.152 142.672 285.773 143.069 285.195 143.503C284.617 143.936 284.184 144.351 283.895 144.749C283.57 145.218 283.154 145.796 282.648 146.482C282.179 147.205 281.637 147.837 281.023 148.379C280.951 148.415 280.752 148.469 280.427 148.541C280.102 148.613 279.903 148.686 279.831 148.758C279.506 149.191 279.325 149.625 279.289 150.058C279.253 150.492 279.181 150.889 279.073 151.25C279 151.611 278.82 151.918 278.531 152.171C278.278 152.46 277.772 152.659 277.014 152.767C276.833 152.514 276.743 152.189 276.743 151.792C276.743 151.07 276.978 150.293 277.447 149.462C277.917 148.632 278.296 147.71 278.585 146.699C278.838 145.832 279.055 144.676 279.235 143.232C279.452 141.823 279.687 140.179 279.939 138.301C280.192 136.423 280.463 134.346 280.752 132.07C281.041 129.795 281.402 127.393 281.836 124.865C282.016 123.925 282.215 123.095 282.432 122.372C282.648 121.686 282.757 121.09 282.757 120.584C282.757 119.934 282.576 119.483 282.215 119.23C281.89 118.977 281.511 118.796 281.077 118.688C280.68 118.616 280.301 118.525 279.939 118.417C279.614 118.345 279.452 118.146 279.452 117.821C279.452 117.352 279.56 116.936 279.777 116.575C280.03 116.178 280.319 115.816 280.644 115.491C281.005 115.166 281.366 114.841 281.727 114.516C282.125 114.191 282.45 113.866 282.703 113.541C282.811 113.396 282.865 113.216 282.865 112.999C282.865 112.746 282.937 112.529 283.082 112.349C283.262 112.132 283.551 111.934 283.949 111.753C284.346 111.572 284.581 111.374 284.653 111.157C284.906 110.579 285.087 109.893 285.195 109.098C285.339 108.303 285.43 107.473 285.466 106.606C285.538 105.739 285.592 104.854 285.628 103.951C285.664 103.048 285.755 102.199 285.899 101.404C286.008 100.754 286.188 100.104 286.441 99.454C286.73 98.8038 286.947 98.1176 287.091 97.3952C287.308 96.3477 287.416 95.3724 287.416 94.4694C287.452 93.5664 287.615 92.6454 287.904 91.7062C287.976 91.4534 288.103 91.0561 288.283 90.5143C288.5 89.9725 288.662 89.4307 288.771 88.8889C288.879 88.2748 288.915 87.715 288.879 87.2093C288.879 86.6675 288.969 86.1437 289.15 85.6381C289.222 85.4213 289.276 85.1324 289.313 84.7712C289.385 84.41 289.439 84.0126 289.475 83.5792C289.511 83.1458 289.565 82.7304 289.638 82.3331C289.71 81.8996 289.818 81.5204 289.963 81.1953C290.143 80.6896 290.27 79.9311 290.342 78.9197C290.414 77.8722 290.541 76.8789 290.721 75.9398C290.866 75.109 291.01 74.3505 291.155 73.6642C291.335 72.9779 291.48 72.2555 291.588 71.497C291.697 70.6663 291.751 69.8355 291.751 69.0047C291.751 68.174 291.823 67.5238 291.967 67.0542C292.004 66.982 292.148 66.8014 292.401 66.5124C292.654 66.2235 292.907 65.8623 293.159 65.4288C293.34 65.1399 293.503 64.7606 293.647 64.2911C293.792 63.8215 293.9 63.5325 293.972 63.4242C294.08 63.3158 294.351 63.1894 294.785 63.0449C295.218 62.8643 295.634 62.5753 296.031 62.178C296.284 61.9613 296.482 61.7446 296.627 61.5279C296.771 61.275 296.934 61.0402 297.115 60.8235C297.295 60.6068 297.512 60.4081 297.765 60.2275C298.018 60.0469 298.379 59.9025 298.848 59.7941C299.246 59.7941 299.589 59.9025 299.878 60.1192C300.167 60.2998 300.311 60.5887 300.311 60.9861C300.311 61.3111 300.257 61.6904 300.149 62.1238C300.04 62.5573 299.896 63.0088 299.715 63.4783C299.571 63.9479 299.408 64.4175 299.228 64.887C299.083 65.3566 298.957 65.8081 298.848 66.2415C298.415 67.9753 298.036 69.691 297.711 71.3887C297.422 73.0502 297.151 74.7298 296.898 76.4274C296.645 78.0889 296.392 79.7866 296.139 81.5204C295.886 83.2541 295.579 85.0421 295.218 86.8842C295.327 87.0287 295.435 87.1009 295.543 87.1009C295.76 87.1009 295.977 86.9564 296.194 86.6675C296.41 86.3424 296.645 85.9631 296.898 85.5297C297.187 85.0601 297.476 84.5544 297.765 84.0126C298.09 83.4347 298.451 82.8929 298.848 82.3872C299.354 81.7371 299.95 81.0147 300.636 80.22C301.323 79.4254 302.063 78.5404 302.858 77.5652C303.291 77.0595 303.779 76.5538 304.321 76.0482C304.898 75.5064 305.494 74.784 306.108 73.8809C306.253 73.7003 306.379 73.5017 306.488 73.285C306.632 73.0682 306.795 72.8696 306.975 72.689C307.084 72.5806 307.3 72.4723 307.626 72.3639C307.987 72.2555 308.294 72.1111 308.547 71.9305C308.727 71.786 308.926 71.5693 309.143 71.2803C309.395 70.9913 309.648 70.7204 309.901 70.4676C310.19 70.1786 310.479 69.9439 310.768 69.7633C311.093 69.5465 311.436 69.4382 311.797 69.4382C311.978 69.4382 312.213 69.5285 312.502 69.7091C312.791 69.8897 313.098 70.0703 313.423 70.2509C313.459 70.3231 313.603 70.7024 313.856 71.3887C314.109 72.0749 314.38 72.9599 314.669 74.0435C314.958 75.1271 315.229 76.3191 315.482 77.6194C315.734 78.9197 315.861 80.22 315.861 81.5204V83.1999ZM308.167 86.4508C308.095 84.9337 307.914 83.7959 307.626 83.0374C307.337 82.2789 307.192 81.701 307.192 81.3036C307.192 81.0869 307.192 80.8702 307.192 80.6535C307.228 80.4368 307.246 80.22 307.246 80.0033C307.246 79.4976 307.102 79.1003 306.813 78.8113C306.524 78.5224 306.343 78.3779 306.271 78.3779H306.108C304.375 80.2923 302.876 82.315 301.612 84.4461C300.347 86.5772 299.029 88.9972 297.656 91.7062C297.476 91.9952 297.259 92.2661 297.006 92.5189C296.789 92.7718 296.591 93.0427 296.41 93.3316C296.266 93.6206 296.139 93.9457 296.031 94.3069C295.923 94.6681 295.778 95.0112 295.598 95.3363C295.417 95.6253 295.2 95.8962 294.947 96.149C294.731 96.4018 294.55 96.6728 294.406 96.9617C293.43 98.9483 292.636 101.097 292.022 103.409C291.444 105.721 291.155 108.159 291.155 110.723C291.877 110.904 292.672 111.067 293.539 111.211C294.442 111.319 295.254 111.374 295.977 111.374C296.591 111.374 297.133 111.301 297.602 111.157C298.072 111.012 298.487 110.868 298.848 110.723C299.246 110.543 299.571 110.38 299.824 110.236C300.076 110.055 300.293 109.947 300.474 109.911C300.835 109.839 301.106 109.766 301.286 109.694C301.503 109.622 301.684 109.55 301.828 109.477C302.009 109.369 302.171 109.261 302.316 109.152C302.46 109.044 302.641 108.899 302.858 108.719C303.074 108.574 303.291 108.502 303.508 108.502C303.725 108.502 303.923 108.448 304.104 108.34C304.248 108.231 304.411 108.033 304.591 107.744C304.772 107.455 304.935 107.166 305.079 106.877C305.26 106.552 305.404 106.263 305.512 106.01C305.621 105.721 305.693 105.54 305.729 105.468V105.251C305.729 105.107 305.711 104.98 305.675 104.872C305.675 104.764 305.675 104.637 305.675 104.493C305.675 104.095 305.801 103.662 306.054 103.192C306.307 102.687 306.47 102.38 306.542 102.271C306.831 101.477 307.048 100.592 307.192 99.6165C307.337 98.6052 307.427 97.5577 307.463 96.4741C307.535 95.3905 307.571 94.3069 307.571 93.2233C307.607 92.1397 307.662 91.1103 307.734 90.135C307.77 89.4487 307.842 88.7986 307.951 88.1845C308.095 87.5705 308.167 86.9926 308.167 86.4508ZM354.708 67.7044C354.672 67.8128 354.654 67.9572 354.654 68.1378C354.654 68.3184 354.654 68.481 354.654 68.6255C354.69 68.7338 354.708 68.8602 354.708 69.0047C354.708 69.4021 354.636 69.7091 354.491 69.9258C354.347 70.1064 354.166 70.2509 353.95 70.3592C353.733 70.4676 353.498 70.5579 353.245 70.6301C353.029 70.7024 352.848 70.8107 352.703 70.9552C352.595 71.0636 352.433 71.2442 352.216 71.497C351.999 71.7137 351.764 71.9485 351.511 72.2014C351.295 72.4542 351.06 72.689 350.807 72.9057C350.59 73.1224 350.41 73.285 350.265 73.3933C349.868 73.61 349.344 73.8087 348.694 73.9893C348.08 74.1338 347.52 74.3324 347.015 74.5853C346.509 74.8381 346.093 75.0729 345.768 75.2896C345.443 75.4702 345.136 75.6328 344.847 75.7773C344.558 75.9217 344.215 76.0301 343.818 76.1023C343.421 76.1746 342.879 76.2107 342.192 76.2107C342.192 76.1385 342.156 76.0482 342.084 75.9398C342.012 75.8314 341.94 75.7773 341.867 75.7773C341.831 75.7773 341.795 75.7953 341.759 75.8314C341.434 76.1926 341.055 76.3913 340.621 76.4274C340.224 76.4635 339.827 76.5719 339.429 76.7525C339.068 76.897 338.743 77.2582 338.454 77.8361C338.201 78.414 338.075 79.4254 338.075 80.8702C338.075 81.2314 338.093 81.5926 338.129 81.9538C338.165 82.315 338.183 82.6762 338.183 83.0374C338.183 84.0126 338.093 85.0962 337.912 86.2882C337.732 87.4441 337.533 88.6721 337.316 89.9725C337.1 91.2367 336.865 92.5551 336.612 93.9276C336.395 95.2641 336.233 96.6366 336.124 98.0453C335.944 100.068 335.745 102.145 335.528 104.276C335.348 106.407 335.257 108.502 335.257 110.561C336.197 110.272 336.955 109.766 337.533 109.044C338.147 108.285 338.761 107.581 339.375 106.931C339.7 106.57 340.061 106.19 340.459 105.793C340.892 105.36 341.326 104.926 341.759 104.493C341.795 104.457 341.831 104.366 341.867 104.222C341.94 104.041 342.012 103.861 342.084 103.68C342.192 103.463 342.301 103.283 342.409 103.138C342.518 102.958 342.626 102.867 342.734 102.867C342.807 102.867 342.897 102.885 343.005 102.922C343.114 102.958 343.204 102.976 343.276 102.976C343.384 102.976 343.493 102.885 343.601 102.705C343.71 102.524 343.836 102.326 343.98 102.109C344.161 101.892 344.36 101.693 344.576 101.513C344.793 101.332 345.064 101.242 345.389 101.242C345.497 101.242 345.588 101.26 345.66 101.296C345.768 101.296 345.823 101.386 345.823 101.567C345.823 102.109 345.606 102.578 345.172 102.976C344.775 103.373 344.45 103.752 344.197 104.113C343.114 105.667 341.904 107.22 340.567 108.773C339.267 110.326 338.057 112.132 336.937 114.191C336.756 114.444 336.612 114.624 336.504 114.733C336.395 114.841 336.287 114.95 336.178 115.058C336.07 115.13 335.908 115.22 335.691 115.329C335.51 115.437 335.239 115.618 334.878 115.871C334.517 116.087 334.21 116.358 333.957 116.683C333.704 117.008 333.433 117.315 333.144 117.604C332.892 117.929 332.585 118.182 332.223 118.363C331.862 118.58 331.411 118.688 330.869 118.688C330.58 118.652 330.255 118.453 329.894 118.092C329.532 117.731 329.189 117.333 328.864 116.9C328.575 116.43 328.322 115.961 328.106 115.491C327.889 115.022 327.781 114.679 327.781 114.462C327.781 114.209 327.799 113.812 327.835 113.27C327.907 112.692 327.997 112.042 328.106 111.319C328.214 110.597 328.322 109.839 328.431 109.044C328.575 108.213 328.702 107.382 328.81 106.552C328.882 106.552 328.973 106.534 329.081 106.497C329.189 106.425 329.243 106.353 329.243 106.281C329.171 106.172 329.117 106.046 329.081 105.901C328.973 105.685 328.918 105.342 328.918 104.872C328.918 104.294 328.973 103.608 329.081 102.813C329.189 101.982 329.298 101.17 329.406 100.375C329.55 99.5443 329.677 98.7858 329.785 98.0995C329.93 97.3771 330.02 96.8172 330.056 96.4199C330.092 95.842 330.11 95.2821 330.11 94.7403C330.11 94.1985 330.128 93.6567 330.164 93.1149C330.201 92.5731 330.273 92.0133 330.381 91.4353C330.49 90.8574 330.652 90.2253 330.869 89.539C330.977 88.8166 331.031 88.0762 331.031 87.3176C331.067 86.5591 331.14 85.8187 331.248 85.0962C331.32 84.735 331.447 84.3197 331.627 83.8501C331.808 83.3805 331.952 82.8568 332.061 82.2789C332.133 81.8816 332.187 81.4301 332.223 80.9244C332.259 80.3826 332.296 79.8769 332.332 79.4073C332.368 78.9378 332.386 78.5404 332.386 78.2154C332.422 77.8903 332.44 77.7458 332.44 77.7819C332.296 77.5652 331.862 77.4027 331.14 77.2943C330.453 77.1859 329.713 77.1318 328.918 77.1318C327.762 77.1318 326.805 77.2762 326.047 77.5652C325.288 77.818 324.728 78.3057 324.367 79.0281C324.259 79.2448 324.169 79.4796 324.096 79.7324C324.06 79.9852 323.988 80.2381 323.88 80.4909C323.807 80.7077 323.663 80.8883 323.446 81.0327C323.266 81.1772 322.959 81.2495 322.525 81.2495C322.308 81.2495 322.074 81.2133 321.821 81.1411C321.604 81.0689 321.496 80.8702 321.496 80.5451C321.496 80.0394 321.622 79.606 321.875 79.2448C322.128 78.8836 322.435 78.5404 322.796 78.2154C323.193 77.8903 323.609 77.5833 324.042 77.2943C324.476 76.9692 324.855 76.608 325.18 76.2107C325.361 76.0301 325.433 75.8314 325.397 75.6147C325.361 75.398 325.415 75.1813 325.559 74.9646C325.631 74.8562 325.758 74.784 325.938 74.7478C326.155 74.7117 326.3 74.6575 326.372 74.5853C326.372 74.5853 326.498 74.3505 326.751 73.8809C327.004 73.3753 327.383 72.8154 327.889 72.2014C328.395 71.5873 328.991 71.0275 329.677 70.5218C330.399 70.0161 331.194 69.7633 332.061 69.7633C332.133 69.7633 332.314 69.8536 332.603 70.0342C332.892 70.1786 333.144 70.2509 333.361 70.2509C333.758 70.2509 334.029 69.9619 334.174 69.384C334.354 68.7699 334.463 68.0656 334.499 67.271C334.571 66.4763 334.607 65.6997 334.607 64.9412C334.643 64.1466 334.734 63.5867 334.878 63.2616C335.095 62.7198 335.474 62.1238 336.016 61.4737C336.594 60.8235 337.154 60.1914 337.696 59.5774C338.201 58.9995 338.635 58.4757 338.996 58.0061C339.357 57.5366 339.718 57.1393 340.079 56.8142C340.441 56.453 340.838 56.164 341.271 55.9473C341.741 55.7306 342.319 55.6042 343.005 55.568C342.788 55.9654 342.608 56.471 342.463 57.0851C342.319 57.6991 342.174 58.3493 342.03 59.0356C341.922 59.6857 341.813 60.354 341.705 61.0402C341.597 61.6904 341.47 62.2864 341.326 62.8282V62.9907C341.326 63.1352 341.326 63.2616 341.326 63.37C341.362 63.4783 341.38 63.6048 341.38 63.7493C341.38 63.8937 341.326 64.0563 341.217 64.2369C341.109 64.4175 340.982 64.6884 340.838 65.0496C340.73 65.4108 340.621 65.8984 340.513 66.5124C340.405 67.1265 340.35 67.9572 340.35 69.0047C340.35 69.5104 340.386 69.9077 340.459 70.1967C340.531 70.4495 340.657 70.6482 340.838 70.7927C341.055 70.901 341.344 70.9733 341.705 71.0094C342.102 71.0094 342.608 71.0094 343.222 71.0094C345.497 71.0094 347.358 70.8107 348.802 70.4134C350.247 70.0161 351.277 69.5104 351.891 68.8964C352.035 68.7519 352.306 68.481 352.703 68.0837C353.137 67.6502 353.57 67.4335 354.004 67.4335C354.293 67.4335 354.528 67.5238 354.708 67.7044ZM380.986 82.8207C380.986 83.5792 380.967 84.2294 380.931 84.7712C380.895 85.313 380.841 85.8187 380.769 86.2882C380.733 86.7578 380.66 87.2273 380.552 87.6969C380.444 88.1665 380.317 88.6902 380.173 89.2681C379.884 90.5323 379.631 91.7965 379.414 93.0607C379.198 94.2888 378.927 95.5891 378.602 96.9617C378.565 97.1062 378.457 97.3229 378.277 97.6119C378.132 97.9008 377.969 98.2259 377.789 98.5871C377.608 98.9483 377.428 99.3095 377.247 99.6707C377.103 100.032 376.994 100.339 376.922 100.592C376.741 101.314 376.452 101.91 376.055 102.38C375.694 102.849 375.315 103.463 374.917 104.222C374.737 104.619 374.61 105.071 374.538 105.576C374.466 106.046 374.321 106.407 374.105 106.66C374.032 106.768 373.834 106.949 373.509 107.202C373.22 107.455 372.877 107.744 372.479 108.069C372.118 108.394 371.739 108.719 371.341 109.044C370.98 109.369 370.691 109.658 370.475 109.911C370.33 110.091 370.186 110.308 370.041 110.561C369.933 110.814 369.806 111.012 369.662 111.157C369.481 111.265 369.265 111.319 369.012 111.319C368.795 111.319 368.596 111.392 368.416 111.536C368.343 111.645 368.271 111.825 368.199 112.078C368.163 112.295 368.073 112.403 367.928 112.403C367.856 112.403 367.747 112.403 367.603 112.403C367.495 112.367 367.404 112.349 367.332 112.349C367.188 112.349 366.863 112.548 366.357 112.945C365.851 113.306 365.291 113.721 364.677 114.191C364.099 114.661 363.539 115.112 362.998 115.546C362.492 115.979 362.149 116.25 361.968 116.358C361.715 116.539 361.445 116.683 361.156 116.792C360.903 116.9 360.65 117.045 360.397 117.225C360.072 117.37 359.819 117.532 359.639 117.713C359.458 117.929 359.277 118.11 359.097 118.255C358.916 118.435 358.717 118.58 358.501 118.688C358.284 118.796 357.977 118.851 357.58 118.851C357.471 118.851 357.255 118.778 356.93 118.634C356.604 118.489 356.279 118.291 355.954 118.038C355.629 117.821 355.322 117.55 355.033 117.225C354.78 116.9 354.654 116.557 354.654 116.196C354.654 116.087 354.672 115.979 354.708 115.871C354.744 115.726 354.762 115.582 354.762 115.437C354.762 115.329 354.744 115.238 354.708 115.166C354.275 114.263 353.787 113.414 353.245 112.62C352.74 111.789 352.487 110.814 352.487 109.694C352.487 109.297 352.541 108.899 352.649 108.502C352.758 108.069 352.812 107.491 352.812 106.768C352.812 105.865 352.758 104.836 352.649 103.68C352.541 102.488 352.487 101.314 352.487 100.158C352.487 99.0747 352.649 97.8647 352.974 96.5283C353.299 95.1918 353.733 93.8554 354.275 92.5189C354.816 91.1464 355.431 89.828 356.117 88.5638C356.839 87.2996 357.58 86.1979 358.338 85.2588C358.88 84.5725 359.458 83.9223 360.072 83.3083C360.686 82.6943 361.318 82.0622 361.968 81.412C362.655 80.7618 363.341 80.0936 364.027 79.4073C364.713 78.721 365.382 77.9625 366.032 77.1318C366.429 76.6261 366.953 76.1023 367.603 75.5605C368.289 75.0187 368.976 74.4589 369.662 73.8809C369.842 73.7726 370.041 73.7184 370.258 73.7184C370.475 73.7184 370.673 73.6462 370.854 73.5017C371.215 73.2488 371.522 72.9779 371.775 72.689C372.028 72.4 372.244 72.1291 372.425 71.8763C372.606 71.6234 372.786 71.4248 372.967 71.2803C373.147 71.0997 373.346 71.0094 373.563 71.0094C373.743 71.0094 373.906 71.0275 374.05 71.0636C374.231 71.0997 374.412 71.1178 374.592 71.1178C374.809 71.1178 374.972 71.0636 375.08 70.9552C375.188 70.8107 375.297 70.6663 375.405 70.5218C375.513 70.3412 375.64 70.1967 375.784 70.0883C375.965 69.9439 376.218 69.8716 376.543 69.8716C377.229 69.98 377.717 70.1606 378.006 70.4134C378.331 70.6301 378.547 70.9191 378.656 71.2803C378.764 71.6415 378.854 72.0749 378.927 72.5806C378.999 73.0863 379.143 73.6642 379.36 74.3144L380.173 77.1318C380.317 77.6374 380.48 78.1251 380.66 78.5946C380.841 79.0642 380.949 79.4976 380.986 79.8949C380.986 80.22 380.913 80.4548 380.769 80.5993C380.624 80.7077 380.552 80.9063 380.552 81.1953C380.552 81.3759 380.624 81.6107 380.769 81.8996C380.913 82.1525 380.986 82.4595 380.986 82.8207ZM372.913 90.5143C372.913 89.9363 372.858 89.3042 372.75 88.618C372.678 87.9317 372.606 87.2093 372.533 86.4508C372.461 85.5116 372.407 84.5183 372.371 83.4708C372.371 82.4234 372.335 81.4481 372.262 80.5451C372.19 79.6421 372.082 78.9016 371.937 78.3237C371.829 77.7458 371.63 77.4568 371.341 77.4568C370.944 77.4568 370.33 77.6736 369.499 78.107C368.705 78.5404 367.946 79.0281 367.224 79.5699C367.043 79.7505 366.863 80.0575 366.682 80.4909C366.501 80.8883 366.285 81.2675 366.032 81.6287C365.129 82.8568 364.37 83.9946 363.756 85.0421C363.178 86.0896 362.691 87.1551 362.293 88.2387C361.896 89.3223 361.553 90.4781 361.264 91.7062C360.975 92.8982 360.686 94.2527 360.397 95.7697C360.18 96.9256 359.964 97.9189 359.747 98.7497C359.53 99.5804 359.422 100.538 359.422 101.621C359.422 104.8 359.747 107.256 360.397 108.99C361.083 110.723 361.896 111.59 362.835 111.59C363.413 111.59 363.828 111.428 364.081 111.103C364.37 110.742 364.605 110.471 364.786 110.29C364.966 110.182 365.165 110.127 365.382 110.127C365.634 110.127 365.851 110.055 366.032 109.911C366.79 109.224 367.368 108.412 367.766 107.473C368.163 106.534 368.524 105.594 368.849 104.655H369.174C369.283 104.655 369.337 104.619 369.337 104.547C369.337 104.475 369.319 104.384 369.283 104.276C369.283 104.132 369.283 104.023 369.283 103.951C369.283 103.698 369.337 103.427 369.445 103.138C369.59 102.849 369.752 102.578 369.933 102.326C370.113 102.073 370.294 101.838 370.475 101.621C370.655 101.368 370.782 101.17 370.854 101.025C371.179 100.411 371.396 99.8513 371.504 99.3456C371.648 98.8038 371.739 98.2801 371.775 97.7744C371.847 97.2326 371.883 96.7089 371.883 96.2032C371.919 95.6614 371.992 95.1015 372.1 94.5236C372.208 93.6928 372.353 92.9524 372.533 92.3022C372.714 91.6521 372.84 91.0561 372.913 90.5143ZM405.529 103.463C405.674 103.788 405.746 104.132 405.746 104.493C405.746 104.854 405.656 105.179 405.475 105.468C405.33 105.721 405.132 105.974 404.879 106.227C404.662 106.443 404.409 106.66 404.12 106.877C403.868 107.057 403.651 107.256 403.47 107.473C403.398 107.617 403.344 107.834 403.308 108.123C403.308 108.376 403.236 108.574 403.091 108.719C402.658 109.188 402.116 109.586 401.466 109.911C400.852 110.236 400.31 110.651 399.84 111.157C399.551 111.482 399.335 111.807 399.19 112.132C399.046 112.421 398.721 112.764 398.215 113.162C397.817 113.451 397.438 113.848 397.077 114.354C396.716 114.859 396.319 115.365 395.885 115.871C395.452 116.34 394.946 116.756 394.368 117.117C393.79 117.514 393.104 117.713 392.309 117.713C392.129 117.713 391.966 117.695 391.822 117.659C391.677 117.659 391.515 117.64 391.334 117.604C391.334 117.604 391.208 117.532 390.955 117.388C390.702 117.243 390.413 116.954 390.088 116.521C389.799 116.087 389.528 115.473 389.275 114.679C389.022 113.884 388.896 112.837 388.896 111.536C388.896 111.211 388.95 110.868 389.058 110.507C389.203 110.109 389.347 109.73 389.492 109.369C389.672 109.008 389.817 108.647 389.925 108.285C390.07 107.888 390.142 107.527 390.142 107.202C390.142 106.877 390.07 106.57 389.925 106.281C389.781 105.992 389.709 105.685 389.709 105.36C389.709 105.035 389.853 104.818 390.142 104.709C390.431 104.565 390.575 104.312 390.575 103.951C390.575 103.77 390.557 103.608 390.521 103.463C390.521 103.319 390.521 103.156 390.521 102.976C390.521 102.542 390.593 102.253 390.738 102.109C390.882 101.928 390.955 101.693 390.955 101.404C390.955 101.152 390.9 100.971 390.792 100.863C390.72 100.718 390.684 100.538 390.684 100.321C390.684 100.068 390.774 99.8333 390.955 99.6165C391.135 99.3637 391.262 99.0206 391.334 98.5871C391.587 97.7564 391.785 96.7811 391.93 95.6614C392.074 94.5055 392.237 93.2775 392.418 91.9771C392.634 90.6407 392.869 89.232 393.122 87.7511C393.375 86.234 393.736 84.717 394.205 83.1999C394.35 82.6943 394.494 81.9719 394.639 81.0327C394.82 80.0575 394.928 79.0461 394.964 77.9986C394.783 77.8903 394.657 77.8361 394.585 77.8361C394.296 77.8361 394.079 78.0709 393.935 78.5404C393.826 79.01 393.646 79.3531 393.393 79.5699C393.212 79.7143 392.995 79.7866 392.743 79.7866C392.526 79.7866 392.327 79.8408 392.147 79.9491C391.93 80.1297 391.749 80.3465 391.605 80.5993C391.496 80.816 391.37 81.0327 391.226 81.2495C391.117 81.4662 390.955 81.6829 390.738 81.8996C390.521 82.1163 390.196 82.2789 389.763 82.3872C389.69 82.4234 389.654 82.5137 389.654 82.6581C389.654 82.7665 389.582 82.8207 389.438 82.8207H389.329C389.329 82.7123 389.239 82.622 389.058 82.5498C388.914 82.4414 388.733 82.3331 388.517 82.2247C388.3 82.1163 388.101 81.9899 387.921 81.8454C387.776 81.701 387.704 81.5204 387.704 81.3036C387.704 80.9786 387.776 80.7257 387.921 80.5451C388.065 80.3645 388.264 80.22 388.517 80.1117C388.769 80.0033 389.022 79.8949 389.275 79.7866C389.564 79.6421 389.853 79.4434 390.142 79.1906C390.503 78.8294 390.9 78.414 391.334 77.9445C391.803 77.4749 392.273 77.0053 392.743 76.5358C393.212 76.0301 393.7 75.5605 394.205 75.1271C394.747 74.6575 395.289 74.2421 395.831 73.8809C395.939 73.8087 395.957 73.7365 395.885 73.6642C395.849 73.592 395.957 73.5378 396.21 73.5017C396.319 73.5017 396.463 73.4475 396.644 73.3391C396.86 73.1947 397.059 73.0502 397.24 72.9057C397.456 72.7251 397.637 72.5806 397.781 72.4723C397.926 72.3278 398.016 72.2555 398.052 72.2555C398.125 72.2555 398.197 72.2736 398.269 72.3097C398.377 72.3097 398.468 72.3097 398.54 72.3097C398.829 72.3097 399.154 72.2375 399.515 72.093C399.912 71.9124 400.617 71.8221 401.628 71.8221C402.025 71.8221 402.369 71.9485 402.658 72.2014C402.983 72.4181 403.145 72.8876 403.145 73.61C403.145 73.8268 403.055 74.1699 402.874 74.6395C402.694 75.109 402.495 75.6689 402.278 76.3191C402.062 76.9692 401.863 77.6916 401.682 78.4863C401.502 79.2809 401.411 80.1117 401.411 80.9786C401.411 81.3398 401.43 81.719 401.466 82.1163C401.502 82.4775 401.52 82.8387 401.52 83.1999C401.52 83.8501 401.393 84.41 401.141 84.8795C400.924 85.313 400.761 85.8367 400.653 86.4508C400.508 87.2093 400.436 88.0039 400.436 88.8347C400.436 89.6654 400.382 90.4962 400.274 91.327C399.985 93.0607 399.642 94.7403 399.244 96.3657C398.847 97.9911 398.504 99.6707 398.215 101.404C398.106 101.982 397.926 102.723 397.673 103.626C397.456 104.529 397.348 105.486 397.348 106.497C397.348 107.437 397.51 108.303 397.836 109.098C398.377 109.062 398.829 108.899 399.19 108.61C399.551 108.321 399.876 107.996 400.165 107.635C400.454 107.274 400.725 106.895 400.978 106.497C401.267 106.1 401.574 105.757 401.899 105.468C402.116 105.287 402.423 105.161 402.82 105.089C403.254 104.98 403.615 104.836 403.904 104.655C404.193 104.475 404.391 104.222 404.5 103.897C404.608 103.572 404.843 103.409 405.204 103.409C405.276 103.409 405.33 103.427 405.367 103.463C405.403 103.463 405.457 103.463 405.529 103.463ZM407.534 48.8497C407.642 49.0664 407.696 49.3012 407.696 49.554C407.696 49.9875 407.552 50.457 407.263 50.9627C406.974 51.4684 406.649 51.956 406.288 52.4256C405.963 52.8952 405.638 53.3286 405.312 53.7259C404.987 54.0871 404.789 54.34 404.716 54.4844C404.5 54.954 404.319 55.5861 404.175 56.3807C404.066 57.1754 403.831 57.8978 403.47 58.548C403.326 58.8369 403.199 59.0536 403.091 59.1981C402.983 59.3426 402.856 59.6677 402.712 60.1734C402.567 60.4984 402.387 60.8777 402.17 61.3111C401.953 61.7446 401.718 62.16 401.466 62.5573C401.213 62.9185 400.96 63.2436 400.707 63.5325C400.454 63.7854 400.219 63.9118 400.003 63.9118C399.064 63.9118 398.413 63.4603 398.052 62.5573C397.727 61.6182 397.565 60.5165 397.565 59.2523C397.565 58.7466 397.583 58.2229 397.619 57.6811C397.691 57.1393 397.763 56.6155 397.836 56.1098C397.908 55.568 398.088 55.1707 398.377 54.9179C398.666 54.665 398.901 54.2677 399.082 53.7259C399.262 53.2564 399.389 52.8049 399.461 52.3714C399.533 51.9018 399.605 51.4684 399.678 51.0711C399.786 50.6738 399.894 50.3306 400.003 50.0417C400.147 49.7166 400.364 49.4457 400.653 49.229C400.87 49.0845 401.122 48.9581 401.411 48.8497C401.737 48.7413 402.062 48.6691 402.387 48.633C402.748 48.5607 403.091 48.5066 403.416 48.4704C403.777 48.4343 404.066 48.4163 404.283 48.4163C404.283 48.4524 404.446 48.3982 404.771 48.2537C405.096 48.0731 405.457 47.9828 405.854 47.9828C405.926 47.9828 406.161 48.0551 406.559 48.1995C406.992 48.3079 407.317 48.5246 407.534 48.8497ZM439.934 82.8207C439.934 83.5792 439.916 84.2294 439.879 84.7712C439.843 85.313 439.789 85.8187 439.717 86.2882C439.681 86.7578 439.608 87.2273 439.5 87.6969C439.392 88.1665 439.265 88.6902 439.121 89.2681C438.832 90.5323 438.579 91.7965 438.362 93.0607C438.146 94.2888 437.875 95.5891 437.55 96.9617C437.514 97.1062 437.405 97.3229 437.225 97.6119C437.08 97.9008 436.918 98.2259 436.737 98.5871C436.556 98.9483 436.376 99.3095 436.195 99.6707C436.051 100.032 435.942 100.339 435.87 100.592C435.689 101.314 435.4 101.91 435.003 102.38C434.642 102.849 434.263 103.463 433.865 104.222C433.685 104.619 433.558 105.071 433.486 105.576C433.414 106.046 433.269 106.407 433.053 106.66C432.98 106.768 432.782 106.949 432.457 107.202C432.168 107.455 431.825 107.744 431.427 108.069C431.066 108.394 430.687 108.719 430.289 109.044C429.928 109.369 429.639 109.658 429.423 109.911C429.278 110.091 429.134 110.308 428.989 110.561C428.881 110.814 428.754 111.012 428.61 111.157C428.429 111.265 428.213 111.319 427.96 111.319C427.743 111.319 427.544 111.392 427.364 111.536C427.292 111.645 427.219 111.825 427.147 112.078C427.111 112.295 427.021 112.403 426.876 112.403C426.804 112.403 426.696 112.403 426.551 112.403C426.443 112.367 426.352 112.349 426.28 112.349C426.136 112.349 425.811 112.548 425.305 112.945C424.799 113.306 424.239 113.721 423.625 114.191C423.047 114.661 422.488 115.112 421.946 115.546C421.44 115.979 421.097 116.25 420.916 116.358C420.663 116.539 420.393 116.683 420.104 116.792C419.851 116.9 419.598 117.045 419.345 117.225C419.02 117.37 418.767 117.532 418.587 117.713C418.406 117.929 418.225 118.11 418.045 118.255C417.864 118.435 417.666 118.58 417.449 118.688C417.232 118.796 416.925 118.851 416.528 118.851C416.419 118.851 416.203 118.778 415.878 118.634C415.552 118.489 415.227 118.291 414.902 118.038C414.577 117.821 414.27 117.55 413.981 117.225C413.728 116.9 413.602 116.557 413.602 116.196C413.602 116.087 413.62 115.979 413.656 115.871C413.692 115.726 413.71 115.582 413.71 115.437C413.71 115.329 413.692 115.238 413.656 115.166C413.223 114.263 412.735 113.414 412.193 112.62C411.688 111.789 411.435 110.814 411.435 109.694C411.435 109.297 411.489 108.899 411.597 108.502C411.706 108.069 411.76 107.491 411.76 106.768C411.76 105.865 411.706 104.836 411.597 103.68C411.489 102.488 411.435 101.314 411.435 100.158C411.435 99.0747 411.597 97.8647 411.922 96.5283C412.247 95.1918 412.681 93.8554 413.223 92.5189C413.765 91.1464 414.379 89.828 415.065 88.5638C415.787 87.2996 416.528 86.1979 417.286 85.2588C417.828 84.5725 418.406 83.9223 419.02 83.3083C419.634 82.6943 420.266 82.0622 420.916 81.412C421.603 80.7618 422.289 80.0936 422.975 79.4073C423.661 78.721 424.33 77.9625 424.98 77.1318C425.377 76.6261 425.901 76.1023 426.551 75.5605C427.237 75.0187 427.924 74.4589 428.61 73.8809C428.791 73.7726 428.989 73.7184 429.206 73.7184C429.423 73.7184 429.621 73.6462 429.802 73.5017C430.163 73.2488 430.47 72.9779 430.723 72.689C430.976 72.4 431.192 72.1291 431.373 71.8763C431.554 71.6234 431.734 71.4248 431.915 71.2803C432.096 71.0997 432.294 71.0094 432.511 71.0094C432.691 71.0094 432.854 71.0275 432.999 71.0636C433.179 71.0997 433.36 71.1178 433.54 71.1178C433.757 71.1178 433.92 71.0636 434.028 70.9552C434.136 70.8107 434.245 70.6663 434.353 70.5218C434.461 70.3412 434.588 70.1967 434.732 70.0883C434.913 69.9439 435.166 69.8716 435.491 69.8716C436.177 69.98 436.665 70.1606 436.954 70.4134C437.279 70.6301 437.495 70.9191 437.604 71.2803C437.712 71.6415 437.802 72.0749 437.875 72.5806C437.947 73.0863 438.091 73.6642 438.308 74.3144L439.121 77.1318C439.265 77.6374 439.428 78.1251 439.608 78.5946C439.789 79.0642 439.897 79.4976 439.934 79.8949C439.934 80.22 439.861 80.4548 439.717 80.5993C439.572 80.7077 439.5 80.9063 439.5 81.1953C439.5 81.3759 439.572 81.6107 439.717 81.8996C439.861 82.1525 439.934 82.4595 439.934 82.8207ZM431.861 90.5143C431.861 89.9363 431.807 89.3042 431.698 88.618C431.626 87.9317 431.554 87.2093 431.481 86.4508C431.409 85.5116 431.355 84.5183 431.319 83.4708C431.319 82.4234 431.283 81.4481 431.211 80.5451C431.138 79.6421 431.03 78.9016 430.885 78.3237C430.777 77.7458 430.578 77.4568 430.289 77.4568C429.892 77.4568 429.278 77.6736 428.447 78.107C427.653 78.5404 426.894 79.0281 426.172 79.5699C425.991 79.7505 425.811 80.0575 425.63 80.4909C425.449 80.8883 425.233 81.2675 424.98 81.6287C424.077 82.8568 423.318 83.9946 422.704 85.0421C422.126 86.0896 421.639 87.1551 421.241 88.2387C420.844 89.3223 420.501 90.4781 420.212 91.7062C419.923 92.8982 419.634 94.2527 419.345 95.7697C419.128 96.9256 418.912 97.9189 418.695 98.7497C418.478 99.5804 418.37 100.538 418.37 101.621C418.37 104.8 418.695 107.256 419.345 108.99C420.031 110.723 420.844 111.59 421.783 111.59C422.361 111.59 422.777 111.428 423.029 111.103C423.318 110.742 423.553 110.471 423.734 110.29C423.914 110.182 424.113 110.127 424.33 110.127C424.583 110.127 424.799 110.055 424.98 109.911C425.738 109.224 426.316 108.412 426.714 107.473C427.111 106.534 427.472 105.594 427.797 104.655H428.122C428.231 104.655 428.285 104.619 428.285 104.547C428.285 104.475 428.267 104.384 428.231 104.276C428.231 104.132 428.231 104.023 428.231 103.951C428.231 103.698 428.285 103.427 428.393 103.138C428.538 102.849 428.7 102.578 428.881 102.326C429.061 102.073 429.242 101.838 429.423 101.621C429.603 101.368 429.73 101.17 429.802 101.025C430.127 100.411 430.344 99.8513 430.452 99.3456C430.597 98.8038 430.687 98.2801 430.723 97.7744C430.795 97.2326 430.831 96.7089 430.831 96.2032C430.867 95.6614 430.94 95.1015 431.048 94.5236C431.156 93.6928 431.301 92.9524 431.481 92.3022C431.662 91.6521 431.788 91.0561 431.861 90.5143ZM485.933 104.601C485.933 105.179 485.77 105.703 485.445 106.172C485.12 106.606 484.704 107.039 484.199 107.473C483.693 107.906 483.133 108.34 482.519 108.773C481.905 109.206 481.309 109.694 480.731 110.236C480.551 110.38 480.406 110.597 480.298 110.886C480.189 111.139 480.045 111.319 479.864 111.428C479.684 111.608 479.485 111.681 479.268 111.645C479.052 111.608 478.853 111.681 478.672 111.861C478.42 112.114 478.167 112.475 477.914 112.945C477.697 113.378 477.408 113.83 477.047 114.299C476.939 114.48 476.65 114.841 476.18 115.383C475.747 115.925 475.223 116.485 474.609 117.063C474.031 117.64 473.417 118.164 472.767 118.634C472.153 119.103 471.593 119.338 471.087 119.338C470.798 119.338 470.582 119.266 470.437 119.121C470.293 118.977 470.22 118.814 470.22 118.634C470.22 118.417 470.274 118.164 470.383 117.875C470.491 117.586 470.545 117.207 470.545 116.737C470.545 115.943 470.419 115.275 470.166 114.733C469.913 114.191 469.787 113.776 469.787 113.487C469.823 112.728 470.022 111.897 470.383 110.994C470.78 110.091 470.979 109.17 470.979 108.231C470.979 107.726 470.907 107.256 470.762 106.823C470.618 106.353 470.545 105.865 470.545 105.36C470.545 104.854 470.672 104.33 470.925 103.788C471.177 103.21 471.34 102.669 471.412 102.163C471.485 101.585 471.539 101.007 471.575 100.429C471.611 99.8513 471.629 99.2734 471.629 98.6955V97.1784C471.629 96.3838 471.683 95.6614 471.792 95.0112C471.9 94.3611 472.008 93.747 472.117 93.1691C472.261 92.5912 472.406 92.0133 472.55 91.4353C472.731 90.8574 472.875 90.2434 472.983 89.5932C473.128 88.7263 473.218 87.8594 473.254 86.9926C473.291 86.1257 473.309 85.2588 473.309 84.3919C473.345 83.525 473.381 82.6943 473.417 81.8996C473.489 81.0689 473.616 80.2742 473.796 79.5157C473.688 79.4796 473.525 79.4615 473.309 79.4615C472.839 79.4615 472.442 79.606 472.117 79.8949C471.792 80.1478 471.503 80.4548 471.25 80.816C471.033 81.1411 470.834 81.5023 470.654 81.8996C470.509 82.2608 470.347 82.5498 470.166 82.7665C470.022 82.9471 469.823 83.0735 469.57 83.1458C469.317 83.218 469.119 83.3444 468.974 83.525C468.794 83.7417 468.649 84.0126 468.541 84.3377C468.432 84.6628 468.306 84.9337 468.161 85.1504C468.089 85.2949 467.927 85.3852 467.674 85.4213C467.457 85.4213 467.349 85.5116 467.349 85.6922C467.349 85.7645 467.349 85.8548 467.349 85.9631C467.385 86.0715 467.403 86.1618 467.403 86.234C467.403 86.3785 467.295 86.5591 467.078 86.7758C466.861 86.9564 466.608 87.1551 466.319 87.3718C466.066 87.5885 465.832 87.8053 465.615 88.022C465.398 88.2387 465.29 88.4193 465.29 88.5638C465.29 88.636 465.29 88.7263 465.29 88.8347C465.326 88.943 465.344 89.0333 465.344 89.1056C465.344 89.1778 465.218 89.3945 464.965 89.7557C464.712 90.1169 464.405 90.5143 464.044 90.9477C463.683 91.3812 463.321 91.8146 462.96 92.248C462.599 92.6815 462.31 93.0066 462.093 93.2233C461.443 93.8734 460.974 94.4875 460.685 95.0654C460.396 95.6433 460.179 96.2032 460.034 96.745C459.926 97.2507 459.818 97.7564 459.709 98.262C459.637 98.7677 459.493 99.2553 459.276 99.7249C459.204 99.7971 459.059 99.8694 458.842 99.9416C458.626 99.9777 458.481 100.032 458.409 100.104C458.228 100.501 458.066 100.935 457.921 101.404C457.777 101.874 457.542 102.38 457.217 102.922C457.145 103.03 457 103.174 456.784 103.355C456.567 103.536 456.459 103.68 456.459 103.788C456.278 104.186 456.133 104.655 456.025 105.197C455.917 105.739 455.826 106.299 455.754 106.877C455.682 107.455 455.628 108.033 455.592 108.61C455.556 109.152 455.537 109.622 455.537 110.019C455.537 110.416 455.628 110.723 455.808 110.94C455.989 111.157 456.079 111.482 456.079 111.915C456.079 112.168 455.989 112.367 455.808 112.511C455.664 112.656 455.465 112.8 455.212 112.945C454.996 113.053 454.725 113.18 454.4 113.324C454.111 113.469 453.84 113.649 453.587 113.866C452.756 114.588 452.052 115.238 451.474 115.816C450.896 116.358 450.372 116.864 449.903 117.333C449.433 117.839 449.018 118.291 448.657 118.688C448.295 119.121 447.916 119.537 447.519 119.934C447.266 119.898 447.14 119.772 447.14 119.555C447.14 119.158 447.338 118.76 447.736 118.363C448.133 117.966 448.332 117.604 448.332 117.279C448.332 117.026 448.259 116.828 448.115 116.683C448.006 116.503 447.952 116.25 447.952 115.925C447.952 115.816 447.97 115.6 448.006 115.275C448.079 114.913 448.151 114.516 448.223 114.083C448.295 113.613 448.368 113.144 448.44 112.674C448.548 112.204 448.639 111.789 448.711 111.428C448.855 110.814 449.036 110.2 449.253 109.586C449.505 108.936 449.74 108.285 449.957 107.635C450.21 106.949 450.408 106.263 450.553 105.576C450.733 104.89 450.824 104.186 450.824 103.463C450.824 103.138 450.806 102.867 450.77 102.651C450.733 102.398 450.715 102.163 450.715 101.946C450.715 101.621 450.752 101.17 450.824 100.592C450.896 99.9777 450.968 99.3095 451.041 98.5871C451.149 97.8647 451.239 97.1423 451.311 96.4199C451.42 95.6975 451.51 95.0473 451.582 94.4694C451.691 93.2052 451.745 91.923 451.745 90.6226C451.745 89.3223 451.817 88.04 451.962 86.7758C452.106 85.62 452.305 84.4641 452.558 83.3083C452.847 82.1525 452.991 80.9966 452.991 79.8408C452.991 79.1184 452.919 78.4682 452.774 77.8903C452.341 77.9625 451.907 78.2334 451.474 78.703C451.041 79.1725 450.625 79.6782 450.228 80.22C449.867 80.7618 449.542 81.2495 449.253 81.6829C448.964 82.1163 448.747 82.3331 448.602 82.3331C448.53 82.3331 448.44 82.3331 448.332 82.3331C448.223 82.2969 448.133 82.2789 448.061 82.2789C447.88 82.2789 447.736 82.4775 447.627 82.8749C447.519 83.2722 447.374 83.7056 447.194 84.1752C447.013 84.6086 446.76 85.024 446.435 85.4213C446.146 85.8187 445.731 86.0173 445.189 86.0173C445.045 86.0173 444.774 85.9631 444.376 85.8548C443.979 85.7464 443.78 85.4936 443.78 85.0962C443.78 84.8434 443.853 84.6086 443.997 84.3919C444.178 84.1752 444.376 83.9765 444.593 83.7959C444.846 83.6153 445.081 83.4528 445.297 83.3083C445.55 83.1277 445.749 82.9471 445.893 82.7665C446.002 82.5859 446.056 82.3872 446.056 82.1705C446.092 81.9177 446.164 81.701 446.273 81.5204C447.14 80.4368 448.169 79.3712 449.361 78.3237C450.589 77.2762 451.727 76.1746 452.774 75.0187C452.919 74.8743 452.973 74.6756 452.937 74.4227C452.937 74.1699 453.027 73.9712 453.208 73.8268C453.352 73.6823 453.551 73.6281 453.804 73.6642C454.057 73.6642 454.255 73.592 454.4 73.4475C454.508 73.3391 454.598 73.1405 454.671 72.8515C454.779 72.5626 454.923 72.2736 455.104 71.9846C455.321 71.6596 455.574 71.3887 455.863 71.1719C456.188 70.9552 456.621 70.8469 457.163 70.8469C457.452 70.8469 457.759 70.901 458.084 71.0094C458.445 71.0816 458.77 71.2081 459.059 71.3887C459.384 71.5331 459.637 71.7137 459.818 71.9305C460.034 72.1111 460.143 72.3097 460.143 72.5264C460.143 72.8876 460.052 73.3572 459.872 73.9351C459.727 74.513 459.655 75.1452 459.655 75.8314C459.655 76.2649 459.727 76.6803 459.872 77.0776C460.016 77.4388 460.089 77.7097 460.089 77.8903C460.016 78.3598 459.854 78.8294 459.601 79.299C459.348 79.7324 459.222 80.3103 459.222 81.0327C459.222 81.3578 459.222 81.719 459.222 82.1163C459.258 82.5137 459.276 82.911 459.276 83.3083C459.276 83.9585 459.186 84.6989 459.005 85.5297C458.824 86.3243 458.626 87.1009 458.409 87.8594C458.228 88.618 458.048 89.3223 457.867 89.9725C457.687 90.5865 457.596 91.0561 457.596 91.3812C457.596 91.6701 457.723 91.8146 457.976 91.8146C458.337 91.8146 458.806 91.5618 459.384 91.0561C459.962 90.5504 460.45 90.0628 460.847 89.5932C460.992 89.4487 461.064 89.2501 461.064 88.9972C461.1 88.7444 461.172 88.5457 461.281 88.4012C461.353 88.2929 461.515 88.1484 461.768 87.9678C462.057 87.7511 462.346 87.5344 462.635 87.3176C462.924 87.1009 463.177 86.9023 463.394 86.7217C463.61 86.5049 463.719 86.3424 463.719 86.234C463.719 86.1618 463.701 86.0715 463.665 85.9631C463.665 85.8548 463.665 85.7645 463.665 85.6922C463.665 85.5116 463.791 85.2588 464.044 84.9337C464.297 84.6086 464.586 84.2655 464.911 83.9043C465.236 83.507 465.543 83.1277 465.832 82.7665C466.157 82.4053 466.392 82.1163 466.536 81.8996C466.681 81.6829 466.735 81.4301 466.699 81.1411C466.699 80.816 466.771 80.5451 466.915 80.3284C467.349 79.7505 467.927 79.1003 468.649 78.3779C469.408 77.6555 470.04 77.0956 470.545 76.6983C470.834 76.4816 471.123 76.3371 471.412 76.2649C471.701 76.1926 471.972 76.0482 472.225 75.8314C472.767 75.3258 473.272 74.7659 473.742 74.1518C474.212 73.5378 474.681 72.9779 475.151 72.4723C475.62 71.9305 476.09 71.479 476.559 71.1178C477.065 70.7566 477.625 70.576 478.239 70.576C478.42 70.576 478.69 70.6663 479.052 70.8469C479.413 71.0275 479.774 71.2803 480.135 71.6054C480.496 71.9305 480.804 72.3097 481.056 72.7432C481.345 73.1405 481.49 73.5739 481.49 74.0435C481.49 74.3324 481.436 74.7117 481.327 75.1813C481.219 75.6147 481.147 76.1204 481.111 76.6983C481.002 77.9986 480.876 79.2087 480.731 80.3284C480.623 81.4481 480.478 82.6581 480.298 83.9585C480.153 84.9337 480.063 85.8728 480.027 86.7758C480.027 87.6427 479.973 88.329 479.864 88.8347C479.684 89.5571 479.395 90.2614 478.997 90.9477C478.636 91.634 478.456 92.4467 478.456 93.3858C478.456 93.6025 478.474 93.8373 478.51 94.0902C478.546 94.343 478.6 94.6139 478.672 94.9029C478.709 95.0112 478.763 95.1015 478.835 95.1738C478.943 95.2099 479.034 95.2821 479.106 95.3905C479.214 95.4627 479.305 95.5891 479.377 95.7697C479.449 95.9503 479.485 96.2212 479.485 96.5825C479.485 97.5216 479.286 98.4607 478.889 99.3998C478.492 100.303 478.293 101.278 478.293 102.326C478.293 102.723 478.347 103.138 478.456 103.572C478.6 103.969 478.672 104.366 478.672 104.764C478.672 105.486 478.51 106.208 478.185 106.931C477.896 107.617 477.751 108.376 477.751 109.206C477.751 109.387 477.769 109.55 477.806 109.694C477.842 109.839 477.95 109.911 478.131 109.911C478.925 109.911 479.575 109.622 480.081 109.044C480.623 108.466 481.129 107.834 481.598 107.148C482.068 106.461 482.555 105.829 483.061 105.251C483.603 104.673 484.253 104.384 485.011 104.384C485.337 104.384 485.644 104.457 485.933 104.601Z" fill="white"/>
<g filter="url(#filter1_g_4_57)">
<rect x="572.716" y="95.3286" width="20" height="20" rx="10" transform="rotate(-45 572.716 95.3286)" fill="white"/>
</g>
<defs>
<filter id="filter0_g_4_57" x="-139.184" y="-5.72205e-06" width="762.8" height="191.8" filterUnits="userSpaceOnUse" color-interpolation-filters="sRGB">
<feFlood flood-opacity="0" result="BackgroundImageFix"/>
<feBlend mode="normal" in="SourceGraphic" in2="BackgroundImageFix" result="shape"/>
<feTurbulence type="fractalNoise" baseFrequency="0.026525197550654411 0.026525197550654411" numOctaves="3" seed="3464" />
<feDisplacementMap in="shape" scale="53.799999237060547" xChannelSelector="R" yChannelSelector="G" result="displacedImage" width="100%" height="100%" />
<feMerge result="effect1_texture_4_57">
<feMergeNode in="displacedImage"/>
</feMerge>
</filter>
<filter id="filter1_g_4_57" x="568.458" y="76.9286" width="36.8" height="36.8" filterUnits="userSpaceOnUse" color-interpolation-filters="sRGB">
<feFlood flood-opacity="0" result="BackgroundImageFix"/>
<feBlend mode="normal" in="SourceGraphic" in2="BackgroundImageFix" result="shape"/>
<feTurbulence type="fractalNoise" baseFrequency="0.1785714328289032 0.1785714328289032" numOctaves="3" seed="1453" />
<feDisplacementMap in="shape" scale="16.799999237060547" xChannelSelector="R" yChannelSelector="G" result="displacedImage" width="100%" height="100%" />
<feMerge result="effect1_texture_4_57">
<feMergeNode in="displacedImage"/>
</feMerge>
</filter>
<linearGradient id="paint0_linear_4_57" x1="-27.3441" y1="95.9" x2="596.716" y2="95.9" gradientUnits="userSpaceOnUse">
<stop stop-opacity="0"/>
<stop offset="0.677911"/>
</linearGradient>
</defs>
</svg>
