<svg width="688" height="289" viewBox="0 0 688 289" fill="none" xmlns="http://www.w3.org/2000/svg">
<g opacity="0.46" filter="url(#filter0_g_4_33)">
<path d="M-49.2122 26.9H572.788L660.288 144.4L572.788 261.9H-49.2122V26.9Z" fill="url(#paint0_linear_4_33)"/>
</g>
<g filter="url(#filter1_g_4_33)">
<rect x="628.573" y="143.9" width="30" height="30" rx="10" transform="rotate(-45 628.573 143.9)" fill="white"/>
</g>
<path d="M375.595 110.64C375.595 112.205 375.173 113.71 374.331 115.155C373.488 116.599 372.464 117.954 371.26 119.218C370.056 120.482 368.792 121.656 367.468 122.74C366.143 123.763 365.03 124.696 364.127 125.539C363.826 125.72 363.585 125.81 363.404 125.81C363.224 125.75 363.013 125.87 362.772 126.171C362.652 126.292 362.471 126.502 362.23 126.803C362.05 127.104 361.809 127.436 361.508 127.797C361.267 128.158 360.996 128.519 360.695 128.88C360.455 129.181 360.244 129.392 360.063 129.512C359.702 129.813 359.281 129.964 358.799 129.964C358.317 129.964 357.836 130.054 357.354 130.235C357.053 130.355 356.481 130.716 355.638 131.318C354.796 131.92 353.712 132.643 352.388 133.486C351.123 134.268 349.649 135.141 347.963 136.104C346.338 137.068 344.532 138.001 342.545 138.904C342.184 139.084 341.823 139.325 341.461 139.626C341.1 139.927 340.799 140.168 340.558 140.348C340.137 140.529 339.685 140.619 339.204 140.619C338.782 140.619 338.301 140.74 337.759 140.981C337.578 141.101 337.247 141.342 336.766 141.703C336.344 142.004 336.013 142.215 335.772 142.335C335.11 142.576 334.448 142.756 333.786 142.877C333.184 142.937 332.522 143.057 331.799 143.238C331.077 143.358 330.264 143.539 329.361 143.78C328.518 144.021 327.525 144.442 326.381 145.044C326.201 145.104 326.02 145.285 325.839 145.586C325.719 145.827 325.237 145.947 324.395 145.947C323.732 145.947 323.251 146.098 322.95 146.399C322.709 146.639 322.589 147.211 322.589 148.114C322.589 148.475 322.589 148.897 322.589 149.378C322.649 149.86 322.679 150.402 322.679 151.004C322.679 151.786 322.589 152.659 322.408 153.623C322.288 154.526 322.107 155.609 321.866 156.873C321.686 158.077 321.445 159.492 321.144 161.118C320.843 162.743 320.572 164.579 320.331 166.626C319.91 167.469 319.639 168.342 319.518 169.245C319.398 170.087 319.338 171.02 319.338 172.044C319.338 172.345 319.368 172.736 319.428 173.218C319.488 173.699 319.579 174.181 319.699 174.663C319.819 175.084 320 175.445 320.241 175.746C320.542 176.047 320.903 176.198 321.324 176.198C321.806 176.198 322.438 176.077 323.221 175.836C324.003 175.535 324.816 175.385 325.659 175.385C326.682 175.385 327.405 175.535 327.826 175.836C328.308 176.137 328.94 176.438 329.722 176.739C329.06 178.004 327.886 178.877 326.201 179.358C324.575 179.84 322.739 180.171 320.692 180.351C318.645 180.592 316.569 180.803 314.462 180.984C312.355 181.164 310.488 181.555 308.863 182.158C308.261 182.278 307.749 182.519 307.328 182.88C306.906 183.301 306.425 183.512 305.883 183.512C305.522 183.512 305.1 183.482 304.619 183.422C304.197 183.422 303.746 183.422 303.264 183.422C301.759 183.422 300.495 183.663 299.472 184.144C298.508 184.626 297.726 184.867 297.124 184.867C296.943 184.867 296.702 184.716 296.401 184.415C296.1 184.174 295.799 183.813 295.498 183.331C295.258 182.91 295.047 182.459 294.866 181.977C294.686 181.495 294.595 181.014 294.595 180.532C294.595 180.231 294.957 179.87 295.679 179.448C296.462 178.967 297.636 178.726 299.201 178.726C299.682 178.726 300.194 178.786 300.736 178.907C301.278 178.967 301.789 178.997 302.271 178.997C303.415 178.997 304.258 178.636 304.799 177.913C305.341 177.131 305.702 176.168 305.883 175.024C306.124 173.82 306.274 172.556 306.335 171.231C306.455 169.847 306.605 168.522 306.786 167.258C307.027 165.873 307.388 164.368 307.87 162.743C308.351 161.118 308.682 159.703 308.863 158.499C309.044 157.054 309.104 155.82 309.044 154.797C309.044 153.713 309.194 152.479 309.495 151.094C309.555 150.853 309.676 150.552 309.856 150.191C310.097 149.83 310.217 149.679 310.217 149.74C310.217 149.559 310.127 149.318 309.947 149.017C309.826 148.716 309.676 148.385 309.495 148.024C309.375 147.663 309.224 147.332 309.044 147.031C308.923 146.73 308.863 146.519 308.863 146.399C308.983 145.736 309.134 145.285 309.314 145.044C309.555 144.803 309.856 144.352 310.217 143.69C310.639 142.907 311.03 141.793 311.391 140.348C311.753 138.843 312.084 137.158 312.385 135.292C312.686 133.425 312.987 131.469 313.288 129.422C313.589 127.375 313.92 125.389 314.281 123.462C314.823 120.753 315.274 117.713 315.635 114.342C315.997 110.971 316.418 107.479 316.9 103.867C316.96 103.687 317.11 102.994 317.351 101.79C317.592 100.526 317.863 99.0812 318.164 97.4558C318.465 95.8304 318.736 94.1749 318.977 92.4893C319.217 90.8037 319.338 89.389 319.338 88.2452C319.338 86.981 319.037 86.2285 318.435 85.9877C317.893 85.7469 316.93 85.6265 315.545 85.6265C314.462 85.6265 313.348 85.7168 312.204 85.8974C311.06 86.0178 310.157 86.1683 309.495 86.3489C308.652 86.5897 307.87 87.0111 307.147 87.6131C306.425 88.1549 305.733 88.7268 305.07 89.3288C304.408 89.8706 303.776 90.3823 303.174 90.8639C302.632 91.2853 302.12 91.496 301.639 91.496C301.157 91.496 300.796 91.3154 300.555 90.9542C300.314 90.593 300.194 90.2318 300.194 89.8706C300.194 89.389 300.375 88.9074 300.736 88.4258C301.157 87.884 301.639 87.3422 302.181 86.8004C302.783 86.2586 303.385 85.7469 303.987 85.2652C304.589 84.7234 305.07 84.1816 305.432 83.6398C305.793 83.1582 306.064 82.7368 306.244 82.3756C306.425 82.0144 306.605 81.6532 306.786 81.292C307.027 80.9308 307.298 80.5696 307.599 80.2084C307.9 79.8472 308.321 79.4258 308.863 78.9442C309.164 78.7034 309.555 78.5529 310.037 78.4927C310.518 78.3723 311 78.0713 311.482 77.5897C311.843 77.1683 312.084 76.7168 312.204 76.2352C312.324 75.6934 312.475 75.2118 312.656 74.7904C312.836 74.3088 313.137 73.9175 313.559 73.6165C313.98 73.2553 314.702 73.0747 315.726 73.0747C316.809 73.0747 318.013 73.1951 319.338 73.4359C320.722 73.6165 322.017 73.7068 323.221 73.7068C325.027 73.7068 326.502 73.0446 327.645 71.7202C328.849 70.3356 329.873 68.8607 330.716 67.2955C331.558 65.6701 332.311 64.1952 332.973 62.8708C333.635 61.4862 334.388 60.7939 335.231 60.7939C335.712 60.7939 336.104 61.0347 336.405 61.5163C336.706 61.9377 336.856 62.4193 336.856 62.9611C336.856 63.5029 336.675 64.2253 336.314 65.1283C335.953 65.9711 335.562 66.8741 335.14 67.8373C334.779 68.8005 334.418 69.7938 334.057 70.8172C333.696 71.7804 333.515 72.6834 333.515 73.5262C333.515 74.1282 333.726 74.6098 334.147 74.971C334.568 75.272 335.14 75.5429 335.863 75.7837C336.585 76.0245 337.398 76.2352 338.301 76.4158C339.264 76.5362 340.227 76.7168 341.19 76.9576C341.552 77.078 342.334 77.379 343.538 77.8606C344.742 78.3422 346.037 78.9141 347.421 79.5763C348.806 80.1783 350.13 80.8104 351.394 81.4726C352.659 82.1348 353.531 82.6465 354.013 83.0077C354.254 83.1883 354.495 83.4291 354.735 83.7301C354.976 84.0311 355.187 84.2418 355.368 84.3622C356.21 84.9642 356.993 85.3856 357.715 85.6265C358.498 85.8071 359.07 86.0479 359.431 86.3489C360.154 87.0111 360.786 87.884 361.327 88.9676C361.869 90.0512 362.562 90.9843 363.404 91.7669C364.608 92.9709 365.903 94.0244 367.287 94.9274C368.672 95.7702 369.635 96.5227 370.177 97.1849C370.418 97.4859 370.568 97.817 370.628 98.1782C370.689 98.5394 370.779 98.8705 370.899 99.1715C371.14 99.8939 371.531 100.827 372.073 101.971C372.615 103.115 373.127 104.289 373.608 105.493C374.15 106.636 374.602 107.69 374.963 108.653C375.384 109.616 375.595 110.278 375.595 110.64ZM362.772 111.362C362.592 110.64 362.11 109.707 361.327 108.563C360.605 107.359 359.792 106.155 358.889 104.951C357.986 103.747 357.083 102.603 356.18 101.519C355.277 100.436 354.555 99.6531 354.013 99.1715C353.592 98.8103 353.08 98.5394 352.478 98.3588C351.876 98.1782 351.485 97.9976 351.304 97.817C350.1 96.7334 348.746 95.8605 347.241 95.1983C345.736 94.5361 344.622 93.8438 343.899 93.1214C342.756 92.0378 341.461 91.2853 340.017 90.8639C338.572 90.3823 337.157 90.0211 335.772 89.7803C335.411 89.5997 334.96 89.2987 334.418 88.8773C333.876 88.4559 333.455 88.2452 333.154 88.2452C332.492 88.2452 331.95 88.6365 331.528 89.4191C331.107 90.1415 330.776 90.9542 330.535 91.8572C330.294 92.7602 330.114 93.6331 329.993 94.4759C329.873 95.2585 329.783 95.71 329.722 95.8304C329.662 95.9508 329.632 96.0712 329.632 96.1916C329.632 96.7936 329.783 97.215 330.084 97.4558C330.385 97.6364 330.535 98.0879 330.535 98.8103C330.535 99.7735 330.354 100.827 329.993 101.971C329.632 103.054 329.331 104.168 329.09 105.312C328.669 107.539 328.368 109.526 328.187 111.272C328.007 112.957 327.856 114.523 327.736 115.967C327.675 117.352 327.585 118.646 327.465 119.85C327.405 121.054 327.254 122.258 327.013 123.462C326.893 124.245 326.652 124.937 326.291 125.539C325.99 126.141 325.779 126.803 325.659 127.526C325.418 129.512 325.328 131.529 325.388 133.576C325.448 135.563 325.328 137.579 325.027 139.626C325.328 139.686 325.779 139.716 326.381 139.716C327.344 139.716 328.277 139.626 329.18 139.445C330.084 139.205 330.866 138.964 331.528 138.723C332.251 138.422 332.793 138.181 333.154 138.001C333.575 137.76 333.786 137.639 333.786 137.639C335.231 137.158 336.706 136.767 338.211 136.466C339.776 136.104 341.221 135.593 342.545 134.93C343.388 134.509 344.231 133.877 345.073 133.034C345.976 132.191 346.909 131.469 347.873 130.867C348.414 130.566 348.986 130.355 349.588 130.235C350.19 130.114 350.762 129.874 351.304 129.512C351.665 129.332 351.906 129.121 352.026 128.88C352.147 128.64 352.358 128.399 352.659 128.158C352.96 127.917 353.291 127.827 353.652 127.887C354.073 127.887 354.434 127.767 354.735 127.526C354.976 127.285 355.247 126.954 355.548 126.532C355.849 126.111 356.15 125.66 356.451 125.178C356.752 124.636 357.023 124.155 357.264 123.733C357.565 123.312 357.806 122.981 357.986 122.74C359.431 120.994 360.635 119.399 361.598 117.954C362.562 116.449 363.043 114.914 363.043 113.349C363.043 112.686 362.953 112.024 362.772 111.362ZM411.354 156.151C411.233 156.934 411.083 157.716 410.902 158.499C410.782 159.281 410.481 160.064 409.999 160.847C409.698 161.388 409.247 161.87 408.645 162.291C408.043 162.653 407.591 163.074 407.29 163.556C406.929 164.037 406.598 164.609 406.297 165.271C405.996 165.873 405.665 166.415 405.304 166.897C404.702 167.679 404.009 168.432 403.227 169.154C402.504 169.816 401.842 170.659 401.24 171.683C400.518 172.887 399.705 174 398.802 175.024C397.959 176.047 396.755 177.372 395.19 178.997C394.708 179.539 394.317 180.201 394.016 180.984C393.715 181.766 393.414 182.248 393.113 182.428C392.812 182.669 392.361 182.79 391.759 182.79C391.217 182.85 390.795 182.94 390.494 183.061C390.494 183.061 390.344 183.151 390.043 183.331C389.802 183.512 389.501 183.693 389.14 183.873C388.839 184.114 388.478 184.295 388.056 184.415C387.695 184.596 387.364 184.686 387.063 184.686C385.799 184.686 384.836 184.355 384.173 183.693C383.511 183.03 383.03 182.067 382.729 180.803C382.488 179.539 382.337 177.974 382.277 176.107C382.277 174.241 382.277 172.104 382.277 169.696C382.277 168.552 382.307 167.589 382.367 166.806C382.488 165.964 382.608 165.211 382.729 164.549C382.909 163.827 383.06 163.134 383.18 162.472C383.361 161.81 383.541 161.057 383.722 160.215C384.083 158.288 384.294 156.332 384.354 154.345C384.474 152.358 384.715 150.251 385.076 148.024C385.197 147.181 385.408 146.308 385.709 145.405C386.07 144.502 386.311 143.569 386.431 142.606C386.852 139.054 387.063 135.412 387.063 131.68C387.123 127.947 387.364 124.185 387.785 120.392C387.966 118.405 388.237 116.389 388.598 114.342C389.02 112.235 389.411 110.188 389.772 108.202C390.254 105.613 390.675 102.844 391.036 99.8939C391.458 96.8839 391.849 93.8438 392.21 90.7736C392.632 87.7034 393.023 84.6331 393.384 81.5629C393.745 78.4325 394.106 75.4225 394.468 72.5329C394.588 71.5095 394.829 70.4861 395.19 69.4627C395.611 68.3791 395.822 67.3256 395.822 66.3022C395.822 65.038 395.371 63.9544 394.468 63.0514C393.504 63.232 392.842 63.7136 392.481 64.4962C392.18 65.2186 391.729 65.8808 391.127 66.4828C390.284 67.3256 389.501 68.048 388.779 68.65C388.056 69.252 387.274 70.0948 386.431 71.1784C386.19 71.4794 385.949 71.8707 385.709 72.3523C385.468 72.8339 385.167 73.3155 384.806 73.7971C384.505 74.2185 384.113 74.5797 383.632 74.8807C383.15 75.1817 382.548 75.3322 381.826 75.3322C381.224 75.3322 380.862 75.1817 380.742 74.8807C380.622 74.5195 380.561 74.1583 380.561 73.7971C380.561 73.2553 380.712 72.7436 381.013 72.262C381.374 71.7202 381.765 71.2085 382.187 70.7269C382.668 70.1851 383.18 69.6734 383.722 69.1918C384.264 68.7102 384.715 68.2286 385.076 67.747C386.04 66.6032 386.943 65.4293 387.785 64.2253C388.688 62.9611 389.591 61.9076 390.494 61.0648C391.157 60.4026 391.999 59.7705 393.023 59.1685C394.046 58.5665 395.009 57.844 395.912 57.0012C396.755 56.2186 397.417 55.2554 397.899 54.1116C398.441 52.9678 399.103 52.125 399.886 51.5832C400.126 51.4026 400.427 51.3123 400.789 51.3123C401.21 51.2521 401.601 51.1919 401.963 51.1317C402.384 51.0113 402.775 50.8608 403.136 50.6802C403.498 50.4394 403.769 50.0782 403.949 49.5966C404.852 49.5966 405.635 49.8374 406.297 50.319C406.959 50.7404 407.501 51.2521 407.922 51.8541C408.404 52.3959 408.765 52.9076 409.006 53.3892C409.247 53.8708 409.367 54.1417 409.367 54.2019C409.367 54.8641 409.156 55.6166 408.735 56.4594C408.374 57.242 408.133 58.115 408.013 59.0782C407.892 60.0414 407.802 61.0648 407.742 62.1484C407.682 63.1718 407.591 64.3457 407.471 65.6701C407.411 66.9945 407.26 68.4995 407.019 70.1851C406.779 71.8105 406.447 73.7068 406.026 75.874C405.785 77.0178 405.394 78.1014 404.852 79.1248C404.371 80.1482 404.07 81.0813 403.949 81.9241C403.588 84.5127 403.407 87.3121 403.407 90.3221C403.407 93.2719 403.136 96.1013 402.595 98.8103C402.414 99.7133 402.143 100.556 401.782 101.339C401.421 102.061 401.24 102.844 401.24 103.687C401.24 103.927 401.24 104.258 401.24 104.68C401.3 105.041 401.33 105.372 401.33 105.673C401.33 106.095 401.21 106.396 400.969 106.576C400.789 106.697 400.698 106.817 400.698 106.937C400.698 107.118 400.789 107.299 400.969 107.479C401.15 107.6 401.24 107.901 401.24 108.382C401.24 109.767 400.939 111.151 400.337 112.536C399.735 113.86 399.344 115.125 399.163 116.329C398.742 119.339 398.531 122.409 398.531 125.539C398.591 128.67 398.381 131.68 397.899 134.569C397.779 135.231 397.538 135.894 397.177 136.556C396.815 137.218 396.605 137.88 396.545 138.542C396.424 140.409 396.304 142.425 396.183 144.593C396.123 146.76 396.033 148.807 395.912 150.733C395.732 151.997 395.491 153.412 395.19 154.977C394.889 156.542 394.588 158.168 394.287 159.853C394.046 161.479 393.805 163.104 393.565 164.73C393.384 166.355 393.294 167.86 393.294 169.245C393.294 170.208 393.354 170.93 393.474 171.412C393.595 171.893 393.745 172.255 393.926 172.495C394.167 172.676 394.377 172.796 394.558 172.857C394.799 172.857 395.009 172.857 395.19 172.857C395.611 172.857 396.003 172.706 396.364 172.405C396.725 172.104 397.056 171.743 397.357 171.321C397.718 170.9 398.019 170.479 398.26 170.057C398.561 169.576 398.862 169.184 399.163 168.883C401.21 167.077 402.745 165.422 403.769 163.917C404.792 162.352 405.635 160.997 406.297 159.853C406.959 158.71 407.591 157.807 408.193 157.144C408.795 156.482 409.728 156.151 410.993 156.151H411.354ZM476.822 156.151C477.243 156.572 477.454 157.054 477.454 157.596C477.454 158.499 477.183 159.312 476.641 160.034C476.099 160.696 475.407 161.358 474.564 162.021C473.781 162.623 472.909 163.255 471.945 163.917C471.042 164.579 470.2 165.362 469.417 166.265C468.394 167.469 467.189 168.853 465.805 170.418C464.48 171.923 463.427 173.459 462.644 175.024C462.524 175.325 462.133 175.897 461.47 176.739C460.868 177.582 460.116 178.485 459.213 179.448C458.37 180.412 457.407 181.254 456.323 181.977C455.3 182.699 454.307 183.061 453.343 183.061C452.681 183.061 452.019 182.94 451.357 182.699C450.755 182.519 450.183 182.248 449.641 181.887C449.099 181.586 448.648 181.224 448.287 180.803C447.986 180.442 447.835 180.081 447.835 179.719C447.835 179.178 448.046 178.636 448.467 178.094C448.949 177.552 449.19 176.709 449.19 175.566C449.19 175.265 449.129 175.054 449.009 174.933C448.949 174.813 448.859 174.663 448.738 174.482C448.678 174.301 448.618 174.061 448.558 173.76C448.497 173.459 448.467 172.977 448.467 172.315C448.467 171.653 448.558 170.96 448.738 170.238C448.979 169.455 449.22 168.673 449.461 167.89C449.762 167.047 450.002 166.235 450.183 165.452C450.424 164.609 450.544 163.796 450.544 163.014C450.544 162.833 450.514 162.653 450.454 162.472C450.454 162.231 450.454 162.021 450.454 161.84C450.454 161.479 450.544 160.937 450.725 160.215C450.905 159.492 451.116 158.71 451.357 157.867C451.598 157.024 451.808 156.121 451.989 155.158C452.17 154.134 452.26 153.171 452.26 152.268C452.26 151.124 452.139 150.161 451.899 149.378C451.236 149.619 450.665 149.98 450.183 150.462C449.701 150.883 449.25 151.395 448.828 151.997C448.467 152.539 448.076 153.141 447.655 153.803C447.293 154.405 446.902 154.977 446.481 155.519C446.24 155.82 445.818 156.211 445.216 156.693C444.614 157.174 443.982 157.686 443.32 158.228C442.718 158.77 442.176 159.312 441.695 159.853C441.213 160.335 440.972 160.726 440.972 161.027C440.972 161.148 441.002 161.298 441.063 161.479C441.123 161.659 441.153 161.81 441.153 161.93C441.153 162.111 441.002 162.382 440.701 162.743C440.4 163.104 440.069 163.495 439.708 163.917C439.407 164.278 439.106 164.639 438.805 165C438.504 165.301 438.354 165.512 438.354 165.633C438.293 166.295 437.782 166.927 436.818 167.529C435.855 168.071 435.012 168.763 434.29 169.606C433.748 170.208 433.297 170.84 432.936 171.502C432.574 172.164 432.243 172.766 431.942 173.308C431.641 173.85 431.34 174.301 431.039 174.663C430.738 174.964 430.377 175.114 429.956 175.114C429.835 175.114 429.625 175.084 429.324 175.024C429.083 174.964 428.872 174.933 428.691 174.933C428.27 174.933 427.999 175.204 427.879 175.746C427.819 176.288 427.728 176.709 427.608 177.01C427.126 177.793 426.554 178.395 425.892 178.816C425.29 179.178 424.508 179.719 423.544 180.442C423.123 180.743 422.822 181.074 422.641 181.435C422.521 181.857 422.34 182.218 422.1 182.519C421.859 182.82 421.467 183.061 420.926 183.241C420.444 183.482 419.661 183.602 418.578 183.602C417.976 183.602 417.404 183.542 416.862 183.422C416.32 183.301 416.049 183.121 416.049 182.88C416.049 182.76 416.08 182.609 416.14 182.428C416.2 182.248 416.23 182.097 416.23 181.977C416.23 181.917 416.11 181.796 415.869 181.616C415.628 181.435 415.327 181.164 414.966 180.803C414.665 180.502 414.394 180.081 414.153 179.539C413.912 178.937 413.792 178.214 413.792 177.372C413.792 176.408 413.882 175.415 414.063 174.392C414.304 173.308 414.544 172.255 414.785 171.231C415.086 170.208 415.357 169.245 415.598 168.342C415.839 167.378 416.019 166.475 416.14 165.633C416.381 163.646 416.501 161.629 416.501 159.582C416.501 157.536 416.832 155.7 417.494 154.074C417.795 153.472 418.126 152.659 418.488 151.636C418.849 150.613 419.18 149.409 419.481 148.024C419.541 147.663 419.631 147.151 419.752 146.489C419.872 145.766 420.023 144.984 420.203 144.141C420.384 143.298 420.564 142.455 420.745 141.613C420.986 140.71 421.257 139.927 421.558 139.265C421.678 139.084 421.889 138.874 422.19 138.633C422.551 138.332 422.792 138.091 422.912 137.91C423.033 137.549 423.093 137.158 423.093 136.736C423.153 136.255 423.304 135.773 423.544 135.292C423.665 135.051 423.906 134.81 424.267 134.569C424.628 134.268 424.839 134.027 424.899 133.847C425.2 133.305 425.411 132.643 425.531 131.86C425.651 131.078 425.892 130.415 426.253 129.874C426.494 129.512 426.916 129.211 427.518 128.971C428.12 128.67 428.601 128.278 428.962 127.797C429.263 127.375 429.474 126.924 429.594 126.442C429.775 125.961 429.986 125.539 430.227 125.178C430.889 124.456 431.431 123.823 431.852 123.282C432.334 122.68 432.755 122.138 433.116 121.656C433.538 121.175 433.929 120.723 434.29 120.302C434.651 119.88 435.103 119.459 435.645 119.038C436.006 118.797 436.427 118.345 436.909 117.683C437.451 117.021 437.932 116.569 438.354 116.329C438.835 116.148 439.257 115.997 439.618 115.877C440.039 115.757 440.521 115.486 441.063 115.064C441.183 114.944 441.303 114.703 441.424 114.342C441.544 113.921 441.665 113.68 441.785 113.62C442.206 113.439 442.598 113.288 442.959 113.168C443.38 113.048 443.862 112.747 444.404 112.265C445.066 111.663 445.578 111.061 445.939 110.459C446.3 109.857 446.721 109.345 447.203 108.924C447.685 108.563 448.226 108.322 448.828 108.202C449.43 108.081 449.972 107.87 450.454 107.569C451.357 107.088 452.26 106.456 453.163 105.673C454.126 104.83 455.119 104.018 456.143 103.235C457.166 102.392 458.22 101.7 459.303 101.158C460.447 100.556 461.621 100.255 462.825 100.255C463.608 100.255 464.39 100.195 465.173 100.075C466.016 99.8939 466.798 99.8036 467.521 99.8036C468.183 99.8036 468.785 99.924 469.327 100.165C469.868 100.406 470.139 100.917 470.139 101.7C470.139 103.988 469.868 106.546 469.327 109.375C468.785 112.205 468.183 115.245 467.521 118.496C466.919 121.747 466.347 125.178 465.805 128.79C465.323 132.402 465.082 136.134 465.082 139.987C465.082 140.108 465.113 140.288 465.173 140.529C465.293 140.77 465.353 141.131 465.353 141.613C465.353 141.974 465.263 142.425 465.082 142.967C464.962 143.449 464.812 143.96 464.631 144.502C464.45 144.984 464.27 145.465 464.089 145.947C463.969 146.429 463.909 146.85 463.909 147.211C463.909 147.813 463.909 148.415 463.909 149.017C463.969 149.619 463.999 150.161 463.999 150.643C463.999 151.666 463.878 152.81 463.638 154.074C463.397 155.338 463.096 156.663 462.735 158.047C462.434 159.372 462.163 160.696 461.922 162.021C461.681 163.345 461.561 164.579 461.561 165.723C461.561 166.325 461.591 166.897 461.651 167.439C461.711 167.92 461.832 168.402 462.012 168.883C462.795 168.522 463.427 168.071 463.909 167.529C464.45 166.987 464.932 166.385 465.353 165.723C465.835 165 466.317 164.248 466.798 163.465C467.28 162.623 467.912 161.75 468.695 160.847C468.996 160.485 469.417 160.004 469.959 159.402C470.501 158.8 471.072 158.228 471.674 157.686C472.276 157.144 472.909 156.663 473.571 156.241C474.233 155.82 474.865 155.609 475.467 155.609C475.888 155.609 476.34 155.79 476.822 156.151ZM455.872 109.646C455.691 109.646 455.511 109.646 455.33 109.646C455.149 109.586 454.999 109.556 454.879 109.556C453.976 109.556 453.283 109.827 452.802 110.369C452.38 110.85 452.019 111.091 451.718 111.091C451.598 111.091 451.447 111.091 451.267 111.091C451.086 111.031 450.905 111.001 450.725 111.001C450.424 111.001 450.273 111.181 450.273 111.543C450.273 111.844 450.123 112.084 449.822 112.265C449.581 112.566 449.25 112.717 448.828 112.717C448.407 112.656 448.076 112.747 447.835 112.987C447.534 113.288 447.233 113.77 446.932 114.432C446.691 115.034 446.3 115.666 445.758 116.329C445.277 116.87 444.675 117.352 443.952 117.773C443.29 118.195 442.778 118.616 442.417 119.038C442.297 119.278 442.176 119.64 442.056 120.121C441.996 120.543 441.905 120.874 441.785 121.114C441.303 121.957 440.701 122.981 439.979 124.185C439.317 125.328 438.594 126.532 437.812 127.797C437.029 129.061 436.247 130.295 435.464 131.499C434.742 132.643 434.14 133.666 433.658 134.569C433.176 135.412 432.845 136.405 432.665 137.549C432.484 138.693 432.334 139.897 432.213 141.161C432.153 142.365 432.093 143.539 432.033 144.683C431.972 145.766 431.852 146.669 431.671 147.392C430.528 151.365 429.444 155.368 428.421 159.402C427.457 163.375 426.976 167.228 426.976 170.96C428.24 170.78 429.203 170.298 429.865 169.515C430.588 168.673 431.16 167.74 431.581 166.716C432.002 165.693 432.394 164.699 432.755 163.736C433.116 162.773 433.628 162.051 434.29 161.569C434.772 161.268 435.253 160.847 435.735 160.305C436.277 159.763 436.728 159.251 437.089 158.77C437.27 158.529 437.36 158.228 437.36 157.867C437.36 157.445 437.481 157.084 437.721 156.783C438.083 156.362 438.504 155.91 438.986 155.429C439.527 154.947 440.069 154.465 440.611 153.984C441.153 153.502 441.635 153.051 442.056 152.629C442.538 152.148 442.899 151.756 443.14 151.455C443.38 151.154 443.501 150.703 443.501 150.101C443.561 149.439 443.651 148.957 443.772 148.656C444.374 147.512 445.036 146.489 445.758 145.586C446.481 144.623 447.173 143.629 447.835 142.606C448.919 140.92 449.822 139.265 450.544 137.639C451.327 136.014 451.989 134.359 452.531 132.673C453.073 130.987 453.554 129.272 453.976 127.526C454.397 125.72 454.818 123.793 455.24 121.747C455.481 120.543 455.751 119.248 456.052 117.864C456.414 116.479 456.594 115.064 456.594 113.62C456.594 112.115 456.353 110.79 455.872 109.646ZM547.888 104.86C548.068 105.222 548.159 105.553 548.159 105.854C548.159 106.576 547.798 107.299 547.075 108.021C546.413 108.743 545.781 109.707 545.179 110.911C544.938 111.392 544.848 111.934 544.908 112.536C544.968 113.078 544.848 113.68 544.547 114.342C544.306 114.824 544.035 115.155 543.734 115.335C543.493 115.516 543.252 115.696 543.012 115.877C542.831 115.997 542.65 116.178 542.47 116.419C542.349 116.66 542.289 117.051 542.289 117.593C542.289 118.074 542.319 118.526 542.38 118.947C542.44 119.369 542.47 119.73 542.47 120.031C542.47 120.512 542.289 121.084 541.928 121.747C541.627 122.409 541.206 123.131 540.664 123.914C540.182 124.636 539.671 125.389 539.129 126.171C538.587 126.954 538.135 127.706 537.774 128.429C537.533 128.91 537.383 129.392 537.323 129.874C537.323 130.295 537.232 130.716 537.052 131.138C536.63 132.221 536.119 133.305 535.517 134.389C534.975 135.412 534.433 136.375 533.891 137.278C533.41 138.121 532.958 138.843 532.537 139.445C532.115 140.047 531.845 140.439 531.724 140.619C531.363 140.981 531.182 141.372 531.182 141.793C531.243 142.154 531.182 142.636 531.002 143.238L529.738 145.947C529.617 146.067 529.346 146.188 528.925 146.308C528.564 146.429 528.383 146.549 528.383 146.669C528.202 147.031 527.962 147.452 527.661 147.934C527.42 148.415 527.179 148.897 526.938 149.378C526.517 150.161 526.276 151.004 526.216 151.907C526.156 152.81 525.975 153.532 525.674 154.074C525.373 154.556 524.831 155.098 524.049 155.7C523.326 156.241 522.724 156.813 522.243 157.415C520.858 159.522 519.804 161.178 519.082 162.382C518.36 163.526 517.848 164.368 517.547 164.91C517.427 165.031 517.156 165.151 516.734 165.271C516.373 165.332 516.192 165.482 516.192 165.723C516.192 165.843 516.192 165.994 516.192 166.174C516.253 166.295 516.283 166.415 516.283 166.536C516.283 166.776 516.192 166.987 516.012 167.168C515.831 167.288 515.651 167.469 515.47 167.709C515.289 167.89 515.109 168.131 514.928 168.432C514.748 168.733 514.657 169.154 514.657 169.696C514.657 170.539 514.687 171.442 514.748 172.405C514.868 173.368 514.928 174.301 514.928 175.204C514.928 175.867 514.898 176.469 514.838 177.01C514.778 177.552 514.748 178.244 514.748 179.087C514.748 180.412 514.778 181.977 514.838 183.783C514.958 185.589 515.019 187.425 515.019 189.291C515.019 190.074 514.988 190.826 514.928 191.549C514.928 192.331 514.898 193.084 514.838 193.806C514.718 195.01 514.447 196.124 514.025 197.147C513.664 198.231 513.483 199.375 513.483 200.579C513.483 201.181 513.514 201.723 513.574 202.204C513.634 202.746 513.664 203.258 513.664 203.739C513.664 204.642 513.423 205.425 512.942 206.087C512.46 206.749 511.978 207.592 511.497 208.615C511.075 209.458 510.714 210.181 510.413 210.783C510.172 211.385 509.902 211.957 509.601 212.498C509.3 213.04 508.908 213.582 508.427 214.124C508.005 214.726 507.433 215.388 506.711 216.11L500.029 222.793C499.427 223.395 498.765 224.117 498.042 224.96C497.32 225.803 496.808 226.224 496.507 226.224C496.387 226.224 496.236 226.194 496.056 226.134C495.875 226.134 495.724 226.134 495.604 226.134C495.423 226.134 495.333 226.164 495.333 226.224C494.671 226.946 493.647 227.518 492.263 227.94C490.878 228.421 489.313 228.783 487.567 229.023C485.821 229.264 484.015 229.415 482.149 229.475C480.283 229.535 478.597 229.565 477.092 229.565C476.852 229.565 476.641 229.445 476.46 229.204C476.28 228.963 476.039 228.843 475.738 228.843C475.618 228.963 475.527 229.114 475.467 229.294C475.467 229.535 475.046 229.655 474.203 229.655C473.36 229.655 472.547 229.565 471.765 229.385C470.922 229.204 470.019 229.023 469.056 228.843C468.815 228.843 468.604 228.843 468.424 228.843C468.183 228.903 467.912 228.933 467.611 228.933C467.129 228.933 466.798 228.813 466.618 228.572C466.377 228.331 466.196 228.211 466.076 228.211C465.594 228.211 465.263 228.301 465.082 228.482C464.902 228.722 464.571 228.843 464.089 228.843C463.608 228.843 463.276 228.722 463.096 228.482C462.915 228.301 462.644 228.211 462.283 228.211C461.621 228.271 460.838 228.482 459.935 228.843C459.032 229.204 458.22 229.385 457.497 229.385C456.835 229.385 456.353 229.174 456.052 228.752C455.751 228.331 455.601 227.88 455.601 227.398C455.601 226.856 455.812 226.164 456.233 225.321C456.654 224.538 457.196 223.696 457.858 222.793C458.46 221.89 459.123 220.957 459.845 219.993C460.507 219.09 461.079 218.248 461.561 217.465C461.621 217.345 461.952 216.983 462.554 216.381C463.096 215.779 463.909 214.786 464.992 213.401C465.233 213.1 465.323 212.739 465.263 212.318C465.203 211.957 465.323 211.656 465.624 211.415C465.925 211.114 466.166 210.993 466.347 211.054C466.527 211.114 466.738 210.993 466.979 210.692C467.4 210.211 467.731 209.759 467.972 209.338C468.213 208.916 468.574 208.465 469.056 207.983C469.477 207.562 469.959 207.171 470.501 206.809C471.042 206.508 471.434 206.238 471.674 205.997C472.036 205.575 472.246 205.034 472.307 204.371C472.367 203.769 472.487 203.167 472.668 202.565C472.788 202.024 473.059 201.542 473.48 201.121C473.842 200.699 474.504 200.488 475.467 200.488C476.189 200.488 476.641 200.759 476.822 201.301C477.062 201.903 477.183 202.264 477.183 202.385C477.183 203.047 476.972 203.559 476.551 203.92C476.129 204.281 475.648 204.582 475.106 204.823C474.564 205.064 474.082 205.244 473.661 205.365C473.24 205.485 473.029 205.605 473.029 205.726C473.029 206.027 473.149 206.298 473.39 206.539C473.631 206.779 473.751 206.99 473.751 207.171C473.812 207.592 473.571 208.284 473.029 209.248C472.427 210.211 471.765 211.144 471.042 212.047C470.32 213.01 469.658 213.823 469.056 214.485C468.454 215.207 468.153 215.539 468.153 215.478C468.153 216.141 468.454 216.622 469.056 216.923C469.598 217.224 470.32 217.465 471.223 217.646C472.066 217.826 473.029 217.977 474.113 218.097C475.136 218.278 476.129 218.488 477.092 218.729C478.176 219.03 479.561 219.301 481.246 219.542C482.992 219.843 484.798 219.993 486.664 219.993C488.049 219.993 489.433 219.903 490.818 219.722C492.203 219.542 493.467 219.211 494.611 218.729C494.731 218.729 494.791 218.639 494.791 218.458C494.851 218.338 495.032 218.217 495.333 218.097C495.995 217.916 496.477 217.826 496.778 217.826C497.139 217.886 497.771 217.766 498.674 217.465C499.096 217.465 499.457 217.254 499.758 216.833C500.059 216.472 500.209 216.201 500.209 216.02C500.209 215.659 500.179 215.238 500.119 214.756C500.059 214.335 500.029 213.973 500.029 213.672C500.029 213.251 500.149 212.83 500.39 212.408C500.631 212.047 500.872 211.595 501.112 211.054C501.413 210.572 501.684 210 501.925 209.338C502.166 208.736 502.286 208.013 502.286 207.171C502.286 206.629 502.256 206.027 502.196 205.365C502.196 204.702 502.196 204.01 502.196 203.288C502.196 202.565 502.226 201.813 502.286 201.03C502.346 200.248 502.497 199.405 502.738 198.502C502.798 198.261 502.888 198.05 503.009 197.87C503.129 197.749 503.249 197.629 503.37 197.509C503.49 197.388 503.611 197.208 503.731 196.967C503.851 196.726 503.972 196.365 504.092 195.883C504.213 195.04 504.303 194.107 504.363 193.084C504.423 192.121 504.453 191.037 504.453 189.833C504.453 188.027 504.393 186.101 504.273 184.054C504.152 182.067 504.032 180.111 503.912 178.184C503.791 176.258 503.671 174.452 503.55 172.766C503.43 171.02 503.37 169.546 503.37 168.342C503.37 167.499 503.49 166.837 503.731 166.355C503.972 165.873 504.092 165.602 504.092 165.542C504.092 165.362 504.002 164.97 503.821 164.368C503.701 163.766 503.55 163.104 503.37 162.382C503.189 161.599 503.009 160.817 502.828 160.034C502.708 159.191 502.647 158.469 502.647 157.867C502.647 157.385 502.647 156.934 502.647 156.512C502.708 156.031 502.738 155.549 502.738 155.067C502.738 153.863 502.557 152.629 502.196 151.365C501.895 150.041 501.624 148.686 501.383 147.302C501.082 145.676 500.872 144.261 500.751 143.057C500.631 141.793 500.45 140.469 500.209 139.084C499.969 137.7 499.637 136.074 499.216 134.208C498.795 132.342 498.163 129.964 497.32 127.074C496.959 125.87 496.748 124.696 496.688 123.553C496.627 122.409 496.387 121.355 495.965 120.392C495.905 120.272 495.785 120.211 495.604 120.211C495.423 120.211 495.333 120.031 495.333 119.67C495.333 119.369 495.213 119.007 494.972 118.586C494.791 118.104 494.55 117.653 494.249 117.232C494.009 116.75 493.708 116.359 493.346 116.058C492.985 115.757 492.654 115.606 492.353 115.606C491.51 115.606 490.818 116.028 490.276 116.87C489.795 117.713 489.223 118.646 488.561 119.67C488.32 119.971 487.959 120.302 487.477 120.663C487.056 121.024 486.724 121.355 486.484 121.656C486.243 122.078 486.122 122.529 486.122 123.011C486.122 123.492 486.092 123.944 486.032 124.365C486.032 124.726 485.912 125.058 485.671 125.359C485.49 125.599 485.099 125.72 484.497 125.72C484.256 125.961 483.955 126.262 483.594 126.623C483.233 126.924 482.872 127.285 482.51 127.706C482.27 128.007 482.119 128.339 482.059 128.7C482.059 129.001 481.999 129.332 481.878 129.693C481.818 129.994 481.668 130.265 481.427 130.506C481.246 130.686 480.885 130.777 480.343 130.777C480.102 130.777 479.832 130.747 479.531 130.686C479.23 130.566 479.079 130.265 479.079 129.783C479.079 129.181 479.199 128.609 479.44 128.068C479.741 127.466 480.102 126.894 480.524 126.352C480.945 125.81 481.397 125.268 481.878 124.726C482.36 124.185 482.811 123.613 483.233 123.011C483.413 122.589 483.594 122.078 483.775 121.476C484.015 120.874 484.497 120.061 485.219 119.038C485.34 118.797 485.551 118.556 485.852 118.315C486.153 118.074 486.363 117.834 486.484 117.593C486.664 117.412 486.785 117.111 486.845 116.69C486.905 116.268 487.025 115.907 487.206 115.606C487.447 115.305 487.778 115.094 488.199 114.974C488.621 114.793 488.982 114.583 489.283 114.342C489.464 114.041 489.554 113.71 489.554 113.349C489.554 112.927 489.674 112.566 489.915 112.265C490.397 111.663 490.848 111.212 491.27 110.911C491.691 110.61 492.142 110.158 492.624 109.556C492.865 109.195 493.166 108.623 493.527 107.84C493.948 106.998 494.46 106.155 495.062 105.312C495.664 104.469 496.417 103.747 497.32 103.145C498.223 102.483 499.336 102.151 500.661 102.151C501.082 102.272 501.564 102.633 502.106 103.235C502.708 103.837 503.159 104.379 503.46 104.86C503.701 105.523 503.791 106.275 503.731 107.118C503.671 107.901 503.791 108.713 504.092 109.556C504.152 109.737 504.363 109.977 504.724 110.278C505.086 110.579 505.326 110.79 505.447 110.911C505.688 111.753 505.778 112.506 505.718 113.168C505.657 113.77 505.778 114.583 506.079 115.606C506.079 115.727 506.169 115.817 506.35 115.877C506.591 115.877 506.711 116.028 506.711 116.329C506.892 117.051 507.132 117.743 507.433 118.405C507.795 119.007 508.126 119.7 508.427 120.482C508.728 121.205 508.968 122.108 509.149 123.191C509.39 124.215 509.51 125.509 509.51 127.074C509.51 128.459 509.42 129.573 509.239 130.415C509.119 131.258 509.059 132.071 509.059 132.854C509.059 133.456 509.119 134.027 509.239 134.569C509.42 135.111 509.721 135.773 510.142 136.556C510.443 137.098 510.805 137.519 511.226 137.82C511.647 138.121 511.948 138.603 512.129 139.265C512.611 140.83 512.791 142.516 512.671 144.322C512.611 146.067 512.671 147.753 512.851 149.378C513.032 151.124 513.303 152.78 513.664 154.345C514.025 155.91 514.206 157.475 514.206 159.041V160.124C514.687 160.064 515.109 159.853 515.47 159.492C515.831 159.131 516.162 158.71 516.463 158.228C516.764 157.746 517.035 157.205 517.276 156.603C517.577 156.001 517.908 155.399 518.269 154.797C518.39 154.496 518.6 154.225 518.901 153.984C519.263 153.743 519.503 153.532 519.624 153.352C519.865 152.689 520.045 151.937 520.166 151.094C520.346 150.191 520.587 149.378 520.888 148.656C521.55 147.211 522.303 145.766 523.146 144.322C523.988 142.877 524.831 141.402 525.674 139.897V139.716C525.674 139.596 525.644 139.445 525.584 139.265C525.584 139.084 525.584 138.934 525.584 138.813C525.584 138.693 525.614 138.603 525.674 138.542C526.216 138.121 526.577 137.549 526.758 136.827C526.998 136.044 527.149 135.231 527.209 134.389C527.33 133.546 527.45 132.673 527.57 131.77C527.691 130.867 527.962 129.994 528.383 129.151C528.443 128.971 528.564 128.91 528.744 128.971C528.925 128.971 529.015 128.79 529.015 128.429C529.015 128.369 528.985 128.308 528.925 128.248C528.925 128.188 528.925 128.098 528.925 127.977C528.925 127.737 529.166 127.315 529.647 126.713C530.129 126.111 530.37 125.66 530.37 125.359C530.37 125.178 530.34 124.997 530.279 124.817C530.279 124.576 530.279 124.365 530.279 124.185C530.279 124.245 530.49 123.884 530.911 123.101C531.333 122.258 531.604 121.355 531.724 120.392C531.724 120.151 531.604 119.85 531.363 119.489C531.182 119.068 531.062 118.676 531.002 118.315C530.881 117.352 530.701 116.72 530.46 116.419C530.219 116.058 529.888 115.877 529.467 115.877C528.925 115.877 528.323 116.028 527.661 116.329C526.998 116.63 526.336 116.78 525.674 116.78C525.373 116.78 525.072 116.75 524.771 116.69C524.47 116.569 524.32 116.268 524.32 115.787C524.32 114.824 524.53 114.071 524.952 113.529C525.433 112.987 526.005 112.566 526.667 112.265C527.33 111.964 528.052 111.693 528.835 111.452C529.617 111.151 530.34 110.76 531.002 110.278C531.483 109.917 531.845 109.646 532.085 109.466C532.326 109.285 532.657 109.105 533.079 108.924C533.56 108.683 534.253 108.382 535.156 108.021C536.059 107.6 537.383 106.998 539.129 106.215C539.972 105.613 540.814 105.041 541.657 104.499C542.56 103.957 543.674 103.687 544.998 103.687C545.6 103.687 546.142 103.777 546.624 103.957C547.165 104.078 547.587 104.379 547.888 104.86Z" fill="white"/>
<defs>
<filter id="filter0_g_4_33" x="-76.1122" y="-5.72205e-06" width="763.3" height="288.8" filterUnits="userSpaceOnUse" color-interpolation-filters="sRGB">
<feFlood flood-opacity="0" result="BackgroundImageFix"/>
<feBlend mode="normal" in="SourceGraphic" in2="BackgroundImageFix" result="shape"/>
<feTurbulence type="fractalNoise" baseFrequency="0.026525197550654411 0.026525197550654411" numOctaves="3" seed="3464" />
<feDisplacementMap in="shape" scale="53.799999237060547" xChannelSelector="R" yChannelSelector="G" result="displacedImage" width="100%" height="100%" />
<feMerge result="effect1_texture_4_33">
<feMergeNode in="displacedImage"/>
</feMerge>
</filter>
<filter id="filter1_g_4_33" x="625.216" y="119.329" width="49.1422" height="49.1422" filterUnits="userSpaceOnUse" color-interpolation-filters="sRGB">
<feFlood flood-opacity="0" result="BackgroundImageFix"/>
<feBlend mode="normal" in="SourceGraphic" in2="BackgroundImageFix" result="shape"/>
<feTurbulence type="fractalNoise" baseFrequency="0.13513512909412384 0.13513512909412384" numOctaves="3" seed="1453" />
<feDisplacementMap in="shape" scale="15" xChannelSelector="R" yChannelSelector="G" result="displacedImage" width="100%" height="100%" />
<feMerge result="effect1_texture_4_33">
<feMergeNode in="displacedImage"/>
</feMerge>
</filter>
<linearGradient id="paint0_linear_4_33" x1="35.7878" y1="144.4" x2="660.288" y2="144.4" gradientUnits="userSpaceOnUse">
<stop stop-opacity="0"/>
<stop offset="0.677911"/>
</linearGradient>
</defs>
</svg>
